# MagicaVoxel @ Ephtracy

# group
o 

# material
mtllib WoodCutting.mtl
usemtl palette

# normals
vn -1 0 0
vn 1 0 0
vn 0 0 1
vn 0 0 -1
vn 0 -1 0
vn 0 1 0

# texcoords
vt 0.873047 0.5
vt 0.974609 0.5
vt 0.978516 0.5
vt 0.986328 0.5

# verts
v -0.7 -0.2 2.23517e-008
v -0.7 -0.2 -0.1
v -0.7 0.3 2.23517e-008
v -0.7 0.3 -0.1
v -0.6 -0.4 2.23517e-008
v -0.6 -0.4 -0.1
v -0.6 -0.2 2.23517e-008
v -0.6 -0.2 -0.1
v -0.6 0.3 2.23517e-008
v -0.6 0.3 -0.1
v -0.6 0.5 2.23517e-008
v -0.6 0.5 -0.1
v -0.5 -0.5 2.23517e-008
v -0.5 -0.5 -0.1
v -0.5 -0.4 2.23517e-008
v -0.5 -0.4 -0.1
v -0.5 0.5 2.23517e-008
v -0.5 0.5 -0.1
v -0.5 0.6 2.23517e-008
v -0.5 0.6 -0.1
v -0.4 -0.6 2.23517e-008
v -0.4 -0.6 -0.1
v -0.4 -0.5 2.23517e-008
v -0.4 -0.5 -0.1
v -0.4 0.6 2.23517e-008
v -0.4 0.6 -0.1
v -0.4 0.7 2.23517e-008
v -0.4 0.7 -0.1
v -0.2 -0.7 2.23517e-008
v -0.2 -0.7 -0.1
v -0.2 -0.6 2.23517e-008
v -0.2 -0.6 -0.1
v -0.2 0.7 2.23517e-008
v -0.2 0.7 -0.1
v -0.2 0.8 2.23517e-008
v -0.2 0.8 -0.1
v 0.3 -0.7 2.23517e-008
v 0.3 -0.7 -0.1
v 0.3 -0.6 2.23517e-008
v 0.3 -0.6 -0.1
v 0.3 0.7 2.23517e-008
v 0.3 0.7 -0.1
v 0.3 0.8 2.23517e-008
v 0.3 0.8 -0.1
v 0.5 -0.6 2.23517e-008
v 0.5 -0.6 -0.1
v 0.5 -0.5 2.23517e-008
v 0.5 -0.5 -0.1
v 0.5 0.6 2.23517e-008
v 0.5 0.6 -0.1
v 0.5 0.7 2.23517e-008
v 0.5 0.7 -0.1
v 0.6 -0.5 2.23517e-008
v 0.6 -0.5 -0.1
v 0.6 -0.4 2.23517e-008
v 0.6 -0.4 -0.1
v 0.6 0.5 2.23517e-008
v 0.6 0.5 -0.1
v 0.6 0.6 2.23517e-008
v 0.6 0.6 -0.1
v 0.7 -0.4 2.23517e-008
v 0.7 -0.4 -0.1
v 0.7 -0.2 2.23517e-008
v 0.7 -0.2 -0.1
v 0.7 0.3 2.23517e-008
v 0.7 0.3 -0.1
v 0.7 0.5 2.23517e-008
v 0.7 0.5 -0.1
v 0.8 -0.2 2.23517e-008
v 0.8 -0.2 -0.1
v 0.8 0.3 2.23517e-008
v 0.8 0.3 -0.1
v -0.7 -0.2 2.23517e-008
v -0.7 0.3 2.23517e-008
v -0.6 -0.4 2.23517e-008
v -0.6 -0.2 2.23517e-008
v -0.6 0.3 2.23517e-008
v -0.6 0.5 2.23517e-008
v -0.5 -0.5 2.23517e-008
v -0.5 -0.4 2.23517e-008
v -0.5 -0.2 2.23517e-008
v -0.5 0.3 2.23517e-008
v -0.5 0.5 2.23517e-008
v -0.5 0.6 2.23517e-008
v -0.4 -0.6 2.23517e-008
v -0.4 -0.5 2.23517e-008
v -0.4 -0.3 2.23517e-008
v -0.4 -0.2 2.23517e-008
v -0.4 0.3 2.23517e-008
v -0.4 0.4 2.23517e-008
v -0.4 0.6 2.23517e-008
v -0.4 0.7 2.23517e-008
v -0.3 -0.4 2.23517e-008
v -0.3 -0.3 2.23517e-008
v -0.3 0.4 2.23517e-008
v -0.3 0.5 2.23517e-008
v -0.2 -0.7 2.23517e-008
v -0.2 -0.6 2.23517e-008
v -0.2 -0.5 2.23517e-008
v -0.2 -0.4 2.23517e-008
v -0.2 -0.1 2.23517e-008
v -0.2 0.2 2.23517e-008
v -0.2 0.5 2.23517e-008
v -0.2 0.6 2.23517e-008
v -0.2 0.7 2.23517e-008
v -0.2 0.8 2.23517e-008
v -0.1 -0.2 2.23517e-008
v -0.1 -0.1 2.23517e-008
v -0.1 0.2 2.23517e-008
v -0.1 0.3 2.23517e-008
v 0 0 2.23517e-008
v 0 0.1 2.23517e-008
v 0.1 0 2.23517e-008
v 0.1 0.1 2.23517e-008
v 0.2 -0.2 2.23517e-008
v 0.2 -0.1 2.23517e-008
v 0.2 0.2 2.23517e-008
v 0.2 0.3 2.23517e-008
v 0.3 -0.7 2.23517e-008
v 0.3 -0.6 2.23517e-008
v 0.3 -0.5 2.23517e-008
v 0.3 -0.4 2.23517e-008
v 0.3 -0.1 2.23517e-008
v 0.3 0.2 2.23517e-008
v 0.3 0.5 2.23517e-008
v 0.3 0.6 2.23517e-008
v 0.3 0.7 2.23517e-008
v 0.3 0.8 2.23517e-008
v 0.4 -0.4 2.23517e-008
v 0.4 -0.3 2.23517e-008
v 0.4 0.4 2.23517e-008
v 0.4 0.5 2.23517e-008
v 0.5 -0.6 2.23517e-008
v 0.5 -0.5 2.23517e-008
v 0.5 -0.3 2.23517e-008
v 0.5 -0.2 2.23517e-008
v 0.5 0.3 2.23517e-008
v 0.5 0.4 2.23517e-008
v 0.5 0.6 2.23517e-008
v 0.5 0.7 2.23517e-008
v 0.6 -0.5 2.23517e-008
v 0.6 -0.4 2.23517e-008
v 0.6 -0.2 2.23517e-008
v 0.6 0.3 2.23517e-008
v 0.6 0.5 2.23517e-008
v 0.6 0.6 2.23517e-008
v 0.7 -0.4 2.23517e-008
v 0.7 -0.2 2.23517e-008
v 0.7 0.3 2.23517e-008
v 0.7 0.5 2.23517e-008
v 0.8 -0.2 2.23517e-008
v 0.8 0.3 2.23517e-008
v -0.7 -0.2 -0.1
v -0.7 0.3 -0.1
v -0.6 -0.4 -0.1
v -0.6 -0.2 -0.1
v -0.6 0.3 -0.1
v -0.6 0.5 -0.1
v -0.5 -0.5 -0.1
v -0.5 -0.4 -0.1
v -0.5 -0.2 -0.1
v -0.5 0.3 -0.1
v -0.5 0.5 -0.1
v -0.5 0.6 -0.1
v -0.4 -0.6 -0.1
v -0.4 -0.5 -0.1
v -0.4 -0.3 -0.1
v -0.4 -0.2 -0.1
v -0.4 0.3 -0.1
v -0.4 0.4 -0.1
v -0.4 0.6 -0.1
v -0.4 0.7 -0.1
v -0.3 -0.4 -0.1
v -0.3 -0.3 -0.1
v -0.3 0.4 -0.1
v -0.3 0.5 -0.1
v -0.2 -0.7 -0.1
v -0.2 -0.6 -0.1
v -0.2 -0.5 -0.1
v -0.2 -0.4 -0.1
v -0.2 -0.1 -0.1
v -0.2 0.2 -0.1
v -0.2 0.5 -0.1
v -0.2 0.6 -0.1
v -0.2 0.7 -0.1
v -0.2 0.8 -0.1
v -0.1 -0.2 -0.1
v -0.1 -0.1 -0.1
v -0.1 0.2 -0.1
v -0.1 0.3 -0.1
v 0 0 -0.1
v 0 0.1 -0.1
v 0.1 0 -0.1
v 0.1 0.1 -0.1
v 0.2 -0.2 -0.1
v 0.2 -0.1 -0.1
v 0.2 0.2 -0.1
v 0.2 0.3 -0.1
v 0.3 -0.7 -0.1
v 0.3 -0.6 -0.1
v 0.3 -0.5 -0.1
v 0.3 -0.4 -0.1
v 0.3 -0.1 -0.1
v 0.3 0.2 -0.1
v 0.3 0.5 -0.1
v 0.3 0.6 -0.1
v 0.3 0.7 -0.1
v 0.3 0.8 -0.1
v 0.4 -0.4 -0.1
v 0.4 -0.3 -0.1
v 0.4 0.4 -0.1
v 0.4 0.5 -0.1
v 0.5 -0.6 -0.1
v 0.5 -0.5 -0.1
v 0.5 -0.3 -0.1
v 0.5 -0.2 -0.1
v 0.5 0.3 -0.1
v 0.5 0.4 -0.1
v 0.5 0.6 -0.1
v 0.5 0.7 -0.1
v 0.6 -0.5 -0.1
v 0.6 -0.4 -0.1
v 0.6 -0.2 -0.1
v 0.6 0.3 -0.1
v 0.6 0.5 -0.1
v 0.6 0.6 -0.1
v 0.7 -0.4 -0.1
v 0.7 -0.2 -0.1
v 0.7 0.3 -0.1
v 0.7 0.5 -0.1
v 0.8 -0.2 -0.1
v 0.8 0.3 -0.1
v -0.2 -0.7 2.23517e-008
v 0.3 -0.7 2.23517e-008
v -0.2 -0.7 -0.1
v 0.3 -0.7 -0.1
v -0.4 -0.6 2.23517e-008
v -0.2 -0.6 2.23517e-008
v 0.3 -0.6 2.23517e-008
v 0.5 -0.6 2.23517e-008
v -0.4 -0.6 -0.1
v -0.2 -0.6 -0.1
v 0.3 -0.6 -0.1
v 0.5 -0.6 -0.1
v -0.5 -0.5 2.23517e-008
v -0.4 -0.5 2.23517e-008
v 0.5 -0.5 2.23517e-008
v 0.6 -0.5 2.23517e-008
v -0.5 -0.5 -0.1
v -0.4 -0.5 -0.1
v 0.5 -0.5 -0.1
v 0.6 -0.5 -0.1
v -0.6 -0.4 2.23517e-008
v -0.5 -0.4 2.23517e-008
v 0.6 -0.4 2.23517e-008
v 0.7 -0.4 2.23517e-008
v -0.6 -0.4 -0.1
v -0.5 -0.4 -0.1
v 0.6 -0.4 -0.1
v 0.7 -0.4 -0.1
v -0.7 -0.2 2.23517e-008
v -0.6 -0.2 2.23517e-008
v 0.7 -0.2 2.23517e-008
v 0.8 -0.2 2.23517e-008
v -0.7 -0.2 -0.1
v -0.6 -0.2 -0.1
v 0.7 -0.2 -0.1
v 0.8 -0.2 -0.1
v -0.7 0.3 2.23517e-008
v -0.6 0.3 2.23517e-008
v 0.7 0.3 2.23517e-008
v 0.8 0.3 2.23517e-008
v -0.7 0.3 -0.1
v -0.6 0.3 -0.1
v 0.7 0.3 -0.1
v 0.8 0.3 -0.1
v -0.6 0.5 2.23517e-008
v -0.5 0.5 2.23517e-008
v 0.6 0.5 2.23517e-008
v 0.7 0.5 2.23517e-008
v -0.6 0.5 -0.1
v -0.5 0.5 -0.1
v 0.6 0.5 -0.1
v 0.7 0.5 -0.1
v -0.5 0.6 2.23517e-008
v -0.4 0.6 2.23517e-008
v 0.5 0.6 2.23517e-008
v 0.6 0.6 2.23517e-008
v -0.5 0.6 -0.1
v -0.4 0.6 -0.1
v 0.5 0.6 -0.1
v 0.6 0.6 -0.1
v -0.4 0.7 2.23517e-008
v -0.2 0.7 2.23517e-008
v 0.3 0.7 2.23517e-008
v 0.5 0.7 2.23517e-008
v -0.4 0.7 -0.1
v -0.2 0.7 -0.1
v 0.3 0.7 -0.1
v 0.5 0.7 -0.1
v -0.2 0.8 2.23517e-008
v 0.3 0.8 2.23517e-008
v -0.2 0.8 -0.1
v 0.3 0.8 -0.1

# faces
f 3/3/1 2/3/1 1/3/1
f 4/3/1 2/3/1 3/3/1
f 7/3/1 6/3/1 5/3/1
f 8/3/1 6/3/1 7/3/1
f 11/3/1 10/3/1 9/3/1
f 12/3/1 10/3/1 11/3/1
f 15/3/1 14/3/1 13/3/1
f 16/3/1 14/3/1 15/3/1
f 19/3/1 18/3/1 17/3/1
f 20/3/1 18/3/1 19/3/1
f 23/3/1 22/3/1 21/3/1
f 24/3/1 22/3/1 23/3/1
f 27/3/1 26/3/1 25/3/1
f 28/3/1 26/3/1 27/3/1
f 31/3/1 30/3/1 29/3/1
f 32/3/1 30/3/1 31/3/1
f 35/3/1 34/3/1 33/3/1
f 36/3/1 34/3/1 35/3/1
f 37/3/2 38/3/2 39/3/2
f 39/3/2 38/3/2 40/3/2
f 41/3/2 42/3/2 43/3/2
f 43/3/2 42/3/2 44/3/2
f 45/3/2 46/3/2 47/3/2
f 47/3/2 46/3/2 48/3/2
f 49/3/2 50/3/2 51/3/2
f 51/3/2 50/3/2 52/3/2
f 53/3/2 54/3/2 55/3/2
f 55/3/2 54/3/2 56/3/2
f 57/3/2 58/3/2 59/3/2
f 59/3/2 58/3/2 60/3/2
f 61/3/2 62/3/2 63/3/2
f 63/3/2 62/3/2 64/3/2
f 65/3/2 66/3/2 67/3/2
f 67/3/2 66/3/2 68/3/2
f 69/3/2 70/3/2 71/3/2
f 71/3/2 70/3/2 72/3/2
f 76/3/3 74/3/3 73/3/3
f 77/3/3 74/3/3 76/3/3
f 80/3/3 76/3/3 75/3/3
f 80/3/3 78/3/3 77/3/3
f 80/3/3 77/3/3 76/3/3
f 81/3/3 78/3/3 80/3/3
f 82/3/3 78/3/3 81/3/3
f 83/3/3 78/3/3 82/3/3
f 86/3/3 80/3/3 79/3/3
f 86/3/3 81/3/3 80/3/3
f 87/3/3 81/3/3 86/3/3
f 88/4/3 82/4/3 81/4/3
f 88/3/3 81/3/3 87/3/3
f 89/3/3 84/3/3 83/3/3
f 89/4/3 82/4/3 88/4/3
f 89/3/3 83/3/3 82/3/3
f 90/3/3 84/3/3 89/3/3
f 91/3/3 84/3/3 90/3/3
f 93/3/3 86/3/3 85/3/3
f 93/3/3 87/3/3 86/3/3
f 94/4/3 88/4/3 87/4/3
f 94/3/3 87/3/3 93/3/3
f 94/4/3 89/4/3 88/4/3
f 94/4/3 90/4/3 89/4/3
f 95/3/3 92/3/3 91/3/3
f 95/4/3 90/4/3 94/4/3
f 95/3/3 91/3/3 90/3/3
f 96/3/3 92/3/3 95/3/3
f 98/3/3 93/3/3 85/3/3
f 99/3/3 93/3/3 98/3/3
f 100/4/3 94/4/3 93/4/3
f 100/3/3 93/3/3 99/3/3
f 100/4/3 95/4/3 94/4/3
f 100/4/3 96/4/3 95/4/3
f 101/4/3 96/4/3 100/4/3
f 102/4/3 96/4/3 101/4/3
f 103/3/3 92/3/3 96/3/3
f 103/4/3 96/4/3 102/4/3
f 104/3/3 92/3/3 103/3/3
f 105/3/3 92/3/3 104/3/3
f 107/4/3 100/4/3 99/4/3
f 107/4/3 101/4/3 100/4/3
f 108/2/3 102/2/3 101/2/3
f 108/4/3 101/4/3 107/4/3
f 109/4/3 103/4/3 102/4/3
f 109/2/3 102/2/3 108/2/3
f 109/4/3 104/4/3 103/4/3
f 110/4/3 104/4/3 109/4/3
f 111/2/3 108/2/3 107/2/3
f 111/2/3 109/2/3 108/2/3
f 111/2/3 110/2/3 109/2/3
f 112/2/3 110/2/3 111/2/3
f 113/2/3 111/2/3 107/2/3
f 113/1/3 112/1/3 111/1/3
f 114/2/3 110/2/3 112/2/3
f 114/1/3 112/1/3 113/1/3
f 115/4/3 107/4/3 99/4/3
f 115/2/3 113/2/3 107/2/3
f 115/2/3 114/2/3 113/2/3
f 116/2/3 114/2/3 115/2/3
f 117/2/3 110/2/3 114/2/3
f 117/2/3 114/2/3 116/2/3
f 118/4/3 104/4/3 110/4/3
f 118/2/3 110/2/3 117/2/3
f 119/3/3 99/3/3 98/3/3
f 119/3/3 98/3/3 97/3/3
f 120/3/3 99/3/3 119/3/3
f 121/4/3 116/4/3 115/4/3
f 121/3/3 99/3/3 120/3/3
f 121/4/3 115/4/3 99/4/3
f 122/4/3 116/4/3 121/4/3
f 123/2/3 117/2/3 116/2/3
f 123/4/3 116/4/3 122/4/3
f 124/4/3 118/4/3 117/4/3
f 124/2/3 117/2/3 123/2/3
f 125/4/3 104/4/3 118/4/3
f 125/4/3 118/4/3 124/4/3
f 126/3/3 106/3/3 105/3/3
f 126/4/3 104/4/3 125/4/3
f 126/3/3 105/3/3 104/3/3
f 127/3/3 106/3/3 126/3/3
f 128/3/3 106/3/3 127/3/3
f 129/4/3 124/4/3 123/4/3
f 129/4/3 123/4/3 122/4/3
f 129/4/3 125/4/3 124/4/3
f 129/3/3 121/3/3 120/3/3
f 129/3/3 122/3/3 121/3/3
f 130/4/3 125/4/3 129/4/3
f 131/4/3 125/4/3 130/4/3
f 132/3/3 127/3/3 126/3/3
f 132/4/3 125/4/3 131/4/3
f 132/3/3 126/3/3 125/3/3
f 133/3/3 130/3/3 129/3/3
f 133/3/3 129/3/3 120/3/3
f 134/3/3 130/3/3 133/3/3
f 135/4/3 131/4/3 130/4/3
f 135/3/3 130/3/3 134/3/3
f 136/4/3 131/4/3 135/4/3
f 137/4/3 131/4/3 136/4/3
f 138/3/3 132/3/3 131/3/3
f 138/4/3 131/4/3 137/4/3
f 139/3/3 127/3/3 132/3/3
f 139/3/3 132/3/3 138/3/3
f 140/3/3 127/3/3 139/3/3
f 141/3/3 135/3/3 134/3/3
f 141/3/3 136/3/3 135/3/3
f 142/3/3 136/3/3 141/3/3
f 143/4/3 137/4/3 136/4/3
f 143/3/3 136/3/3 142/3/3
f 144/3/3 138/3/3 137/3/3
f 144/4/3 137/4/3 143/4/3
f 144/3/3 139/3/3 138/3/3
f 145/3/3 139/3/3 144/3/3
f 146/3/3 139/3/3 145/3/3
f 147/3/3 143/3/3 142/3/3
f 147/3/3 145/3/3 144/3/3
f 147/3/3 144/3/3 143/3/3
f 148/3/3 145/3/3 147/3/3
f 149/3/3 145/3/3 148/3/3
f 150/3/3 145/3/3 149/3/3
f 151/3/3 149/3/3 148/3/3
f 152/3/3 149/3/3 151/3/3
f 153/3/4 154/3/4 156/3/4
f 156/3/4 154/3/4 157/3/4
f 155/3/4 156/3/4 160/3/4
f 157/3/4 158/3/4 160/3/4
f 156/3/4 157/3/4 160/3/4
f 160/3/4 158/3/4 161/3/4
f 161/3/4 158/3/4 162/3/4
f 162/3/4 158/3/4 163/3/4
f 159/3/4 160/3/4 166/3/4
f 160/3/4 161/3/4 166/3/4
f 166/3/4 161/3/4 167/3/4
f 161/4/4 162/4/4 168/4/4
f 167/3/4 161/3/4 168/3/4
f 163/3/4 164/3/4 169/3/4
f 168/4/4 162/4/4 169/4/4
f 162/3/4 163/3/4 169/3/4
f 169/3/4 164/3/4 170/3/4
f 170/3/4 164/3/4 171/3/4
f 165/3/4 166/3/4 173/3/4
f 166/3/4 167/3/4 173/3/4
f 167/4/4 168/4/4 174/4/4
f 173/3/4 167/3/4 174/3/4
f 168/4/4 169/4/4 174/4/4
f 169/4/4 170/4/4 174/4/4
f 171/3/4 172/3/4 175/3/4
f 174/4/4 170/4/4 175/4/4
f 170/3/4 171/3/4 175/3/4
f 175/3/4 172/3/4 176/3/4
f 165/3/4 173/3/4 178/3/4
f 178/3/4 173/3/4 179/3/4
f 173/4/4 174/4/4 180/4/4
f 179/3/4 173/3/4 180/3/4
f 174/4/4 175/4/4 180/4/4
f 175/4/4 176/4/4 180/4/4
f 180/4/4 176/4/4 181/4/4
f 181/4/4 176/4/4 182/4/4
f 176/3/4 172/3/4 183/3/4
f 182/4/4 176/4/4 183/4/4
f 183/3/4 172/3/4 184/3/4
f 184/3/4 172/3/4 185/3/4
f 179/4/4 180/4/4 187/4/4
f 180/4/4 181/4/4 187/4/4
f 181/2/4 182/2/4 188/2/4
f 187/4/4 181/4/4 188/4/4
f 182/4/4 183/4/4 189/4/4
f 188/2/4 182/2/4 189/2/4
f 183/4/4 184/4/4 189/4/4
f 189/4/4 184/4/4 190/4/4
f 187/2/4 188/2/4 191/2/4
f 188/2/4 189/2/4 191/2/4
f 189/2/4 190/2/4 191/2/4
f 191/2/4 190/2/4 192/2/4
f 187/2/4 191/2/4 193/2/4
f 191/1/4 192/1/4 193/1/4
f 192/2/4 190/2/4 194/2/4
f 193/1/4 192/1/4 194/1/4
f 179/4/4 187/4/4 195/4/4
f 187/2/4 193/2/4 195/2/4
f 193/2/4 194/2/4 195/2/4
f 195/2/4 194/2/4 196/2/4
f 194/2/4 190/2/4 197/2/4
f 196/2/4 194/2/4 197/2/4
f 190/4/4 184/4/4 198/4/4
f 197/2/4 190/2/4 198/2/4
f 178/3/4 179/3/4 199/3/4
f 177/3/4 178/3/4 199/3/4
f 199/3/4 179/3/4 200/3/4
f 195/4/4 196/4/4 201/4/4
f 200/3/4 179/3/4 201/3/4
f 179/4/4 195/4/4 201/4/4
f 201/4/4 196/4/4 202/4/4
f 196/2/4 197/2/4 203/2/4
f 202/4/4 196/4/4 203/4/4
f 197/4/4 198/4/4 204/4/4
f 203/2/4 197/2/4 204/2/4
f 198/4/4 184/4/4 205/4/4
f 204/4/4 198/4/4 205/4/4
f 185/3/4 186/3/4 206/3/4
f 205/4/4 184/4/4 206/4/4
f 184/3/4 185/3/4 206/3/4
f 206/3/4 186/3/4 207/3/4
f 207/3/4 186/3/4 208/3/4
f 203/4/4 204/4/4 209/4/4
f 202/4/4 203/4/4 209/4/4
f 204/4/4 205/4/4 209/4/4
f 200/3/4 201/3/4 209/3/4
f 201/3/4 202/3/4 209/3/4
f 209/4/4 205/4/4 210/4/4
f 210/4/4 205/4/4 211/4/4
f 206/3/4 207/3/4 212/3/4
f 211/4/4 205/4/4 212/4/4
f 205/3/4 206/3/4 212/3/4
f 209/3/4 210/3/4 213/3/4
f 200/3/4 209/3/4 213/3/4
f 213/3/4 210/3/4 214/3/4
f 210/4/4 211/4/4 215/4/4
f 214/3/4 210/3/4 215/3/4
f 215/4/4 211/4/4 216/4/4
f 216/4/4 211/4/4 217/4/4
f 211/3/4 212/3/4 218/3/4
f 217/4/4 211/4/4 218/4/4
f 212/3/4 207/3/4 219/3/4
f 218/3/4 212/3/4 219/3/4
f 219/3/4 207/3/4 220/3/4
f 214/3/4 215/3/4 221/3/4
f 215/3/4 216/3/4 221/3/4
f 221/3/4 216/3/4 222/3/4
f 216/4/4 217/4/4 223/4/4
f 222/3/4 216/3/4 223/3/4
f 217/3/4 218/3/4 224/3/4
f 223/4/4 217/4/4 224/4/4
f 218/3/4 219/3/4 224/3/4
f 224/3/4 219/3/4 225/3/4
f 225/3/4 219/3/4 226/3/4
f 222/3/4 223/3/4 227/3/4
f 224/3/4 225/3/4 227/3/4
f 223/3/4 224/3/4 227/3/4
f 227/3/4 225/3/4 228/3/4
f 228/3/4 225/3/4 229/3/4
f 229/3/4 225/3/4 230/3/4
f 228/3/4 229/3/4 231/3/4
f 231/3/4 229/3/4 232/3/4
f 235/3/5 234/3/5 233/3/5
f 236/3/5 234/3/5 235/3/5
f 241/3/5 238/3/5 237/3/5
f 242/3/5 238/3/5 241/3/5
f 243/3/5 240/3/5 239/3/5
f 244/3/5 240/3/5 243/3/5
f 249/3/5 246/3/5 245/3/5
f 250/3/5 246/3/5 249/3/5
f 251/3/5 248/3/5 247/3/5
f 252/3/5 248/3/5 251/3/5
f 257/3/5 254/3/5 253/3/5
f 258/3/5 254/3/5 257/3/5
f 259/3/5 256/3/5 255/3/5
f 260/3/5 256/3/5 259/3/5
f 265/3/5 262/3/5 261/3/5
f 266/3/5 262/3/5 265/3/5
f 267/3/5 264/3/5 263/3/5
f 268/3/5 264/3/5 267/3/5
f 269/3/6 270/3/6 273/3/6
f 273/3/6 270/3/6 274/3/6
f 271/3/6 272/3/6 275/3/6
f 275/3/6 272/3/6 276/3/6
f 277/3/6 278/3/6 281/3/6
f 281/3/6 278/3/6 282/3/6
f 279/3/6 280/3/6 283/3/6
f 283/3/6 280/3/6 284/3/6
f 285/3/6 286/3/6 289/3/6
f 289/3/6 286/3/6 290/3/6
f 287/3/6 288/3/6 291/3/6
f 291/3/6 288/3/6 292/3/6
f 293/3/6 294/3/6 297/3/6
f 297/3/6 294/3/6 298/3/6
f 295/3/6 296/3/6 299/3/6
f 299/3/6 296/3/6 300/3/6
f 301/3/6 302/3/6 303/3/6
f 303/3/6 302/3/6 304/3/6
