# MagicaVoxel @ Ephtracy

# group
o 

# material
mtllib Slope6.mtl
usemtl palette

# normals
vn -1 0 0
vn 1 0 0
vn 0 0 1
vn 0 0 -1
vn 0 -1 0
vn 0 1 0

# texcoords
vt 0.900391 0.5
vt 0.904297 0.5

# verts
v -0.2 -0.3 0.1
v -0.2 -0.3 -0.1
v -0.2 -0.2 0.1
v -0.2 -0.2 -0.1
v -0.1 -0.4 0.4
v -0.1 -0.4 0.2
v -0.1 -0.4 0.1
v -0.1 -0.4 -0.1
v -0.1 -0.4 -0.3
v -0.1 -0.4 -0.4
v -0.1 -0.3 0.4
v -0.1 -0.3 0.2
v -0.1 -0.3 0.1
v -0.1 -0.3 -0.1
v -0.1 -0.3 -0.3
v -0.1 -0.3 -0.4
v -0.1 -0.2 0.1
v -0.1 -0.1 0.2
v -0.1 -0.1 0.1
v -0.1 -0.1 -0.2
v -0.1 -0.1 -0.3
v -0.1 0 -0.2
v -0.1 0 -0.3
v 0 -0.4 0.2
v 0 -0.4 0.1
v 0 -0.4 -0.1
v 0 -0.4 -0.2
v 0 -0.4 -0.3
v 0 -0.4 -0.4
v 0 -0.4 -0.5
v 0 -0.3 0.4
v 0 -0.3 0.3
v 0 -0.3 0.2
v 0 -0.3 0.1
v 0 -0.3 -0.1
v 0 -0.3 -0.2
v 0 -0.3 -0.3
v 0 -0.3 -0.4
v 0 -0.2 -0.1
v 0 -0.2 -0.2
v 0 -0.2 -0.3
v 0 -0.2 -0.5
v 0 -0.1 0.4
v 0 -0.1 0.3
v 0 -0.1 0
v 0 -0.1 -0.1
v 0 -0.1 -0.2
v 0 -0.1 -0.3
v 0 -0.1 -0.4
v 0 0 0
v 0 0 -0.1
v 0 0 -0.2
v 0 0 -0.4
v 0 0 -0.5
v 0 0.1 0.3
v 0 0.1 0.2
v 0 0.2 0.3
v 0 0.2 0.2
v 0.1 -0.3 0.3
v 0.1 -0.3 0.2
v 0.1 -0.3 -0.2
v 0.1 -0.3 -0.3
v 0.1 -0.2 0.3
v 0.1 -0.2 0.2
v 0.1 -0.2 -0.1
v 0.1 -0.2 -0.2
v 0.1 -0.2 -0.3
v 0.1 -0.1 0.4
v 0.1 -0.1 0.3
v 0.1 -0.1 0.2
v 0.1 -0.1 0.1
v 0.1 -0.1 0
v 0.1 -0.1 -0.1
v 0.1 -0.1 -0.2
v 0.1 -0.1 -0.3
v 0.1 -0.1 -0.4
v 0.1 0 0.4
v 0.1 0 0.3
v 0.1 0 0.2
v 0.1 0 0.1
v 0.1 0 0
v 0.1 0 -0.1
v 0.1 0 -0.2
v 0.1 0 -0.3
v 0.1 0 -0.4
v 0.1 0.1 0.4
v 0.1 0.1 0.3
v 0.1 0.1 0.2
v 0.1 0.1 0.1
v 0.1 0.1 0
v 0.1 0.1 -0.1
v 0.1 0.2 0.3
v 0.1 0.2 0.2
v 0.1 0.2 0.1
v 0.1 0.2 0
v 0.1 0.2 -0.1
v 0.1 0.2 -0.2
v 0.1 0.2 -0.4
v 0.1 0.2 -0.5
v 0.1 0.3 0.4
v 0.1 0.3 0.3
v 0.1 0.3 0
v 0.1 0.3 -0.1
v 0.1 0.3 -0.4
v 0.1 0.3 -0.5
v 0.1 0.4 0.2
v 0.1 0.4 0.1
v 0.1 0.4 0
v 0.1 0.5 0.1
v 0.1 0.5 0
v 0.2 -0.2 0.3
v 0.2 -0.2 -0.1
v 0.2 -0.1 0.3
v 0.2 -0.1 0.2
v 0.2 -0.1 -0.1
v 0.2 0 0.4
v 0.2 0 0.3
v 0.2 0 0.2
v 0.2 0 -0.3
v 0.2 0 -0.5
v 0.2 0.1 0.4
v 0.2 0.1 0.3
v 0.2 0.1 0.1
v 0.2 0.1 0
v 0.2 0.1 -0.2
v 0.2 0.1 -0.3
v 0.2 0.1 -0.4
v 0.2 0.2 0.1
v 0.2 0.2 0
v 0.2 0.2 -0.1
v 0.2 0.2 -0.2
v 0.2 0.2 -0.4
v 0.2 0.2 -0.5
v 0.2 0.3 0.4
v 0.2 0.3 0.3
v 0.2 0.3 0.1
v 0.2 0.3 0
v 0.2 0.3 -0.1
v 0.2 0.3 -0.2
v 0.2 0.3 -0.3
v 0.2 0.3 -0.4
v 0.2 0.4 0.4
v 0.2 0.4 0.3
v 0.2 0.4 0
v 0.2 0.4 -0.1
v 0.2 0.4 -0.2
v 0.2 0.5 0.4
v 0.2 0.5 0.3
v 0.3 0 -0.2
v 0.3 0 -0.3
v 0.3 0.1 0.2
v 0.3 0.1 0.1
v 0.3 0.1 0
v 0.3 0.1 -0.1
v 0.3 0.1 -0.2
v 0.3 0.1 -0.3
v 0.3 0.2 0.3
v 0.3 0.2 0.2
v 0.3 0.2 0.1
v 0.3 0.2 0
v 0.3 0.2 -0.1
v 0.3 0.3 0.1
v 0.3 0.3 0
v 0.3 0.3 -0.2
v 0.3 0.3 -0.3
v 0.3 0.3 -0.4
v 0.3 0.3 -0.5
v 0.3 0.4 0.3
v 0.3 0.4 0.2
v 0.3 0.4 0.1
v 0.3 0.4 0
v 0.3 0.4 -0.1
v 0.3 0.4 -0.2
v 0.3 0.4 -0.4
v 0.3 0.4 -0.5
v 0.3 0.5 0.2
v 0.3 0.5 0
v 0.3 0.5 -0.1
v 0.3 0.5 -0.3
v 0.3 0.5 -0.4
v 0.4 0.4 0.3
v 0.4 0.4 0.2
v 0.4 0.4 0
v 0.4 0.4 -0.1
v 0.4 0.4 -0.4
v 0.4 0.4 -0.5
v 0.4 0.5 0.3
v 0.4 0.5 0.2
v 0.4 0.5 0
v 0.4 0.5 -0.1
v 0.4 0.5 -0.4
v 0.4 0.5 -0.5
v 0.1 -0.2 0.2
v 0.1 -0.2 0.1
v 0.1 -0.1 0.2
v 0.1 -0.1 0.1
v 0.2 0.4 0.1
v 0.2 0.4 0
v 0.2 0.5 0.1
v 0.2 0.5 0
v 0.5 -0.4 0.4
v 0.5 -0.4 0.2
v 0.5 -0.4 0.1
v 0.5 -0.4 0
v 0.5 -0.4 -0.1
v 0.5 -0.4 -0.3
v 0.5 -0.4 -0.4
v 0.5 -0.4 -0.5
v 0.5 -0.3 0.2
v 0.5 -0.3 0.1
v 0.5 -0.3 0
v 0.5 -0.3 -0.1
v 0.5 -0.3 -0.3
v 0.5 -0.3 -0.4
v 0.5 0.5 0.4
v 0.5 0.5 -0.5
v -0.1 -0.4 0.4
v -0.1 -0.3 0.4
v 0 -0.4 0.4
v 0 -0.3 0.4
v 0 -0.1 0.4
v 0.1 -0.1 0.4
v 0.1 0 0.4
v 0.1 0.1 0.4
v 0.1 0.3 0.4
v 0.2 -0.1 0.4
v 0.2 0 0.4
v 0.2 0.1 0.4
v 0.2 0.3 0.4
v 0.2 0.4 0.4
v 0.2 0.5 0.4
v 0.3 0.4 0.4
v 0.3 0.5 0.4
v 0.5 -0.4 0.4
v 0.5 0.5 0.4
v 0 0.1 0.3
v 0 0.2 0.3
v 0.1 0 0.3
v 0.1 0.1 0.3
v 0.1 0.2 0.3
v 0.2 0 0.3
v 0.2 0.1 0.3
v -0.1 -0.3 0.2
v -0.1 -0.1 0.2
v 0 -0.3 0.2
v 0 -0.2 0.2
v 0.1 -0.3 0.2
v 0.1 -0.2 0.2
v 0.1 -0.1 0.2
v 0.1 0 0.2
v 0.1 0.2 0.2
v 0.1 0.4 0.2
v 0.2 -0.1 0.2
v 0.2 0 0.2
v 0.2 0.2 0.2
v 0.2 0.4 0.2
v 0.3 0.2 0.2
v 0.3 0.4 0.2
v 0.3 0.5 0.2
v 0.4 0.4 0.2
v 0.4 0.5 0.2
v -0.2 -0.3 0.1
v -0.2 -0.2 0.1
v -0.1 -0.4 0.1
v -0.1 -0.3 0.1
v -0.1 -0.2 0.1
v 0 -0.4 0.1
v 0 -0.3 0.1
v 0.1 0.4 0.1
v 0.1 0.5 0.1
v 0.2 0.1 0.1
v 0.2 0.2 0.1
v 0.2 0.4 0.1
v 0.2 0.5 0.1
v 0.3 0.1 0.1
v 0.3 0.2 0.1
v 0 -0.1 0
v 0 0 0
v 0.1 -0.1 0
v 0.1 0 0
v 0.1 0.2 0
v 0.1 0.3 0
v 0.2 0.2 0
v 0.2 0.3 0
v 0.2 0.4 0
v 0.3 0.3 0
v 0.3 0.4 0
v 0.1 -0.2 -0.1
v 0.1 -0.1 -0.1
v 0.1 0.1 -0.1
v 0.1 0.2 -0.1
v 0.2 -0.2 -0.1
v 0.2 -0.1 -0.1
v 0.2 0.1 -0.1
v 0.2 0.2 -0.1
v 0.3 0.1 -0.1
v 0.3 0.2 -0.1
v 0.3 0.4 -0.1
v 0.3 0.5 -0.1
v 0.4 0.4 -0.1
v 0.4 0.5 -0.1
v -0.1 -0.1 -0.2
v -0.1 0 -0.2
v 0 -0.2 -0.2
v 0 -0.1 -0.2
v 0 0 -0.2
v 0.1 -0.2 -0.2
v 0.1 -0.1 -0.2
v -0.1 -0.4 -0.3
v -0.1 -0.3 -0.3
v 0 -0.4 -0.3
v 0 -0.3 -0.3
v 0 -0.2 -0.3
v 0.1 -0.3 -0.3
v 0.1 -0.2 -0.3
v 0.2 0 -0.3
v 0.2 0.1 -0.3
v 0.3 0 -0.3
v 0.3 0.1 -0.3
v 0 -0.1 -0.4
v 0 0 -0.4
v 0.1 -0.1 -0.4
v 0.1 0 -0.4
v 0.1 0.2 -0.4
v 0.1 0.3 -0.4
v 0.2 0.2 -0.4
v 0.2 0.3 -0.4
v 0 -0.3 0.3
v 0 -0.1 0.3
v 0.1 -0.3 0.3
v 0.1 -0.2 0.3
v 0.1 -0.1 0.3
v 0.1 0 0.3
v 0.1 0.2 0.3
v 0.1 0.3 0.3
v 0.2 -0.2 0.3
v 0.2 -0.1 0.3
v 0.2 0 0.3
v 0.2 0.3 0.3
v 0.2 0.4 0.3
v 0.2 0.5 0.3
v 0.3 0.2 0.3
v 0.3 0.4 0.3
v 0.3 0.5 0.3
v 0.4 0.4 0.3
v 0.4 0.5 0.3
v -0.1 -0.4 0.2
v -0.1 -0.3 0.2
v 0 -0.4 0.2
v 0 -0.3 0.2
v 0 0.1 0.2
v 0 0.2 0.2
v 0.1 0.1 0.2
v 0.1 0.2 0.2
v 0.2 0.1 0.2
v 0.2 0.2 0.2
v 0.3 0.1 0.2
v 0.3 0.2 0.2
v -0.1 -0.2 0.1
v -0.1 -0.1 0.1
v 0 -0.2 0.1
v 0.1 -0.2 0.1
v 0.1 -0.1 0.1
v 0.1 0.2 0.1
v 0.1 0.4 0.1
v 0.2 0.2 0.1
v 0.2 0.3 0.1
v 0.2 0.4 0.1
v 0.3 0.3 0.1
v 0.3 0.4 0.1
v 0.1 0.4 0
v 0.1 0.5 0
v 0.2 0.1 0
v 0.2 0.2 0
v 0.2 0.4 0
v 0.2 0.5 0
v 0.3 0.1 0
v 0.3 0.2 0
v 0.3 0.4 0
v 0.3 0.5 0
v 0.4 0.4 0
v 0.4 0.5 0
v -0.2 -0.3 -0.1
v -0.2 -0.2 -0.1
v -0.1 -0.4 -0.1
v -0.1 -0.3 -0.1
v 0 -0.4 -0.1
v 0 -0.3 -0.1
v 0 -0.2 -0.1
v 0.1 0.2 -0.1
v 0.1 0.3 -0.1
v 0.2 0.2 -0.1
v 0.2 0.3 -0.1
v 0 -0.3 -0.2
v 0 -0.2 -0.2
v 0.1 -0.3 -0.2
v 0.1 -0.2 -0.2
v 0.1 0 -0.2
v 0.1 0.2 -0.2
v 0.2 0 -0.2
v 0.2 0.1 -0.2
v 0.2 0.2 -0.2
v 0.2 0.3 -0.2
v 0.2 0.4 -0.2
v 0.3 0 -0.2
v 0.3 0.1 -0.2
v 0.3 0.3 -0.2
v 0.3 0.4 -0.2
v -0.1 -0.1 -0.3
v -0.1 0 -0.3
v 0 -0.1 -0.3
v 0 0 -0.3
v 0.1 -0.1 -0.3
v 0.1 0 -0.3
v -0.1 -0.4 -0.4
v -0.1 -0.3 -0.4
v 0 -0.4 -0.4
v 0 -0.3 -0.4
v 0.3 0.4 -0.4
v 0.3 0.5 -0.4
v 0.4 0.4 -0.4
v 0.4 0.5 -0.4
v 0 -0.4 -0.5
v 0 -0.2 -0.5
v 0 0 -0.5
v 0.1 -0.2 -0.5
v 0.1 0 -0.5
v 0.1 0.2 -0.5
v 0.1 0.3 -0.5
v 0.2 0 -0.5
v 0.2 0.2 -0.5
v 0.3 0.3 -0.5
v 0.3 0.4 -0.5
v 0.4 0.4 -0.5
v 0.4 0.5 -0.5
v 0.5 -0.4 -0.5
v 0.5 0.5 -0.5
v -0.1 -0.4 0.4
v 0 -0.4 0.4
v 0.5 -0.4 0.4
v -0.1 -0.4 0.2
v 0 -0.4 0.2
v 0.4 -0.4 0.2
v 0.5 -0.4 0.2
v -0.1 -0.4 0.1
v 0 -0.4 0.1
v 0.1 -0.4 0.1
v 0.4 -0.4 0.1
v 0.5 -0.4 0.1
v 0 -0.4 0
v 0.1 -0.4 0
v 0.4 -0.4 0
v 0.5 -0.4 0
v -0.1 -0.4 -0.1
v 0 -0.4 -0.1
v 0.4 -0.4 -0.1
v 0.5 -0.4 -0.1
v 0 -0.4 -0.2
v 0.1 -0.4 -0.2
v -0.1 -0.4 -0.3
v 0 -0.4 -0.3
v 0.4 -0.4 -0.3
v 0.5 -0.4 -0.3
v -0.1 -0.4 -0.4
v 0 -0.4 -0.4
v 0.1 -0.4 -0.4
v 0.4 -0.4 -0.4
v 0.5 -0.4 -0.4
v 0 -0.4 -0.5
v 0.5 -0.4 -0.5
v -0.1 -0.3 0.2
v 0 -0.3 0.2
v -0.2 -0.3 0.1
v -0.1 -0.3 0.1
v 0 -0.3 0.1
v -0.2 -0.3 -0.1
v -0.1 -0.3 -0.1
v 0 -0.2 -0.2
v 0.1 -0.2 -0.2
v 0 -0.2 -0.3
v 0.1 -0.2 -0.3
v 0.1 -0.1 0.2
v 0.2 -0.1 0.2
v 0.1 -0.1 0.1
v 0 -0.1 0
v 0.1 -0.1 0
v 0 -0.1 -0.1
v 0.1 -0.1 -0.1
v 0.2 -0.1 -0.1
v -0.1 -0.1 -0.2
v 0 -0.1 -0.2
v 0.1 -0.1 -0.2
v -0.1 -0.1 -0.3
v 0 -0.1 -0.3
v 0.1 0 0.3
v 0.2 0 0.3
v 0.1 0 0.2
v 0.2 0 0.2
v 0.1 0.1 0.4
v 0.2 0.1 0.4
v 0 0.1 0.3
v 0.1 0.1 0.3
v 0.2 0.1 0.3
v 0 0.1 0.2
v 0.1 0.1 0.2
v 0.2 0.1 -0.2
v 0.3 0.1 -0.2
v 0.2 0.1 -0.3
v 0.3 0.1 -0.3
v 0.1 0.2 0.2
v 0.2 0.2 0.2
v 0.3 0.2 0.2
v 0.1 0.2 0.1
v 0.2 0.2 0.1
v 0.3 0.2 0.1
v 0.1 0.2 0
v 0.2 0.2 0
v 0.3 0.2 0
v 0.1 0.2 -0.1
v 0.2 0.2 -0.1
v 0.3 0.2 -0.1
v 0.1 0.2 -0.4
v 0.2 0.2 -0.4
v 0.1 0.2 -0.5
v 0.2 0.2 -0.5
v 0.1 0.4 0.1
v 0.2 0.4 0.1
v 0.1 0.4 0
v 0.2 0.4 0
v -0.1 -0.3 0.4
v 0 -0.3 0.4
v 0 -0.3 0.3
v 0.1 -0.3 0.3
v -0.1 -0.3 0.2
v 0 -0.3 0.2
v 0.1 -0.3 0.2
v 0 -0.3 -0.2
v 0.1 -0.3 -0.2
v -0.1 -0.3 -0.3
v 0 -0.3 -0.3
v 0.1 -0.3 -0.3
v -0.1 -0.3 -0.4
v 0 -0.3 -0.4
v 0.1 -0.2 0.3
v 0.2 -0.2 0.3
v 0.1 -0.2 0.2
v -0.2 -0.2 0.1
v -0.1 -0.2 0.1
v 0 -0.2 0.1
v 0.1 -0.2 0.1
v -0.2 -0.2 -0.1
v 0 -0.2 -0.1
v 0.1 -0.2 -0.1
v 0.2 -0.2 -0.1
v 0 -0.2 -0.2
v 0.1 -0.2 -0.2
v 0 -0.1 0.4
v 0.1 -0.1 0.4
v 0 -0.1 0.3
v 0.1 -0.1 0.3
v -0.1 -0.1 0.2
v 0.1 -0.1 0.2
v -0.1 -0.1 0.1
v 0.1 -0.1 0.1
v 0 -0.1 -0.3
v 0.1 -0.1 -0.3
v 0 -0.1 -0.4
v 0.1 -0.1 -0.4
v 0.1 0 0.4
v 0.2 0 0.4
v 0.1 0 0.3
v 0.2 0 0.3
v 0 0 0
v 0.1 0 0
v 0 0 -0.1
v 0.1 0 -0.1
v -0.1 0 -0.2
v 0 0 -0.2
v 0.1 0 -0.2
v 0.2 0 -0.2
v 0.3 0 -0.2
v -0.1 0 -0.3
v 0 0 -0.3
v 0.1 0 -0.3
v 0.2 0 -0.3
v 0.3 0 -0.3
v 0 0 -0.4
v 0.1 0 -0.4
v 0 0 -0.5
v 0.1 0 -0.5
v 0.2 0 -0.5
v 0.1 0.1 0.2
v 0.2 0.1 0.2
v 0.3 0.1 0.2
v 0.1 0.1 0.1
v 0.2 0.1 0.1
v 0.3 0.1 0.1
v 0.1 0.1 0
v 0.2 0.1 0
v 0.3 0.1 0
v 0.1 0.1 -0.1
v 0.2 0.1 -0.1
v 0.3 0.1 -0.1
v 0 0.2 0.3
v 0.1 0.2 0.3
v 0.3 0.2 0.3
v 0 0.2 0.2
v 0.1 0.2 0.2
v 0.2 0.2 0.2
v 0.3 0.2 0.2
v 0.1 0.2 -0.1
v 0.2 0.2 -0.1
v 0.1 0.2 -0.2
v 0.2 0.2 -0.2
v 0.1 0.3 0.4
v 0.2 0.3 0.4
v 0.1 0.3 0.3
v 0.2 0.3 0.3
v 0.2 0.3 0.1
v 0.3 0.3 0.1
v 0.1 0.3 0
v 0.2 0.3 0
v 0.3 0.3 0
v 0.1 0.3 -0.1
v 0.2 0.3 -0.1
v 0.2 0.3 -0.2
v 0.3 0.3 -0.2
v 0.2 0.3 -0.3
v 0.3 0.3 -0.3
v 0.1 0.3 -0.4
v 0.2 0.3 -0.4
v 0.3 0.3 -0.4
v 0.1 0.3 -0.5
v 0.3 0.3 -0.5
v 0.3 0.4 0.3
v 0.4 0.4 0.3
v 0.1 0.4 0.2
v 0.2 0.4 0.2
v 0.3 0.4 0.2
v 0.4 0.4 0.2
v 0.1 0.4 0.1
v 0.2 0.4 0.1
v 0.3 0.4 0.1
v 0.2 0.4 0
v 0.3 0.4 0
v 0.4 0.4 0
v 0.2 0.4 -0.1
v 0.3 0.4 -0.1
v 0.4 0.4 -0.1
v 0.2 0.4 -0.2
v 0.3 0.4 -0.2
v 0.3 0.4 -0.4
v 0.4 0.4 -0.4
v 0.3 0.4 -0.5
v 0.4 0.4 -0.5
v 0.2 0.5 0.4
v 0.3 0.5 0.4
v 0.5 0.5 0.4
v 0.2 0.5 0.3
v 0.3 0.5 0.3
v 0.4 0.5 0.3
v 0.3 0.5 0.2
v 0.4 0.5 0.2
v 0.1 0.5 0.1
v 0.2 0.5 0.1
v 0.1 0.5 0
v 0.2 0.5 0
v 0.3 0.5 0
v 0.4 0.5 0
v 0.3 0.5 -0.1
v 0.4 0.5 -0.1
v 0.3 0.5 -0.3
v 0.4 0.5 -0.3
v 0.3 0.5 -0.4
v 0.4 0.5 -0.4
v 0.4 0.5 -0.5
v 0.5 0.5 -0.5

# faces
f 3/1/1 2/1/1 1/1/1
f 4/1/1 2/1/1 3/1/1
f 11/1/1 6/1/1 5/1/1
f 12/1/1 6/1/1 11/1/1
f 13/1/1 8/1/1 7/1/1
f 14/1/1 8/1/1 13/1/1
f 15/1/1 10/1/1 9/1/1
f 16/1/1 10/1/1 15/1/1
f 17/1/1 13/1/1 12/1/1
f 18/1/1 17/1/1 12/1/1
f 19/1/1 17/1/1 18/1/1
f 22/1/1 21/1/1 20/1/1
f 23/1/1 21/1/1 22/1/1
f 33/2/1 25/2/1 24/2/1
f 34/2/1 25/2/1 33/2/1
f 35/2/1 27/2/1 26/2/1
f 36/1/1 28/1/1 27/1/1
f 36/2/1 27/2/1 35/2/1
f 37/1/1 28/1/1 36/1/1
f 38/2/1 30/2/1 29/2/1
f 39/1/1 36/1/1 35/1/1
f 40/1/1 36/1/1 39/1/1
f 41/2/1 38/2/1 37/2/1
f 42/2/1 30/2/1 38/2/1
f 42/2/1 38/2/1 41/2/1
f 43/2/1 32/2/1 31/2/1
f 44/2/1 32/2/1 43/2/1
f 47/1/1 42/1/1 41/1/1
f 47/1/1 41/1/1 40/1/1
f 48/1/1 42/1/1 47/1/1
f 49/1/1 42/1/1 48/1/1
f 50/1/1 46/1/1 45/1/1
f 51/2/1 47/2/1 46/2/1
f 51/1/1 46/1/1 50/1/1
f 52/2/1 47/2/1 51/2/1
f 53/1/1 42/1/1 49/1/1
f 54/1/1 42/1/1 53/1/1
f 57/1/1 56/1/1 55/1/1
f 58/1/1 56/1/1 57/1/1
f 63/2/1 60/2/1 59/2/1
f 64/2/1 60/2/1 63/2/1
f 66/2/1 62/2/1 61/2/1
f 67/2/1 62/2/1 66/2/1
f 73/2/1 66/2/1 65/2/1
f 74/2/1 66/2/1 73/2/1
f 77/1/1 69/1/1 68/1/1
f 78/1/1 69/1/1 77/1/1
f 79/2/1 72/2/1 71/2/1
f 79/2/1 71/2/1 70/2/1
f 80/2/1 72/2/1 79/2/1
f 81/2/1 72/2/1 80/2/1
f 84/2/1 76/2/1 75/2/1
f 85/2/1 76/2/1 84/2/1
f 87/1/1 79/1/1 78/1/1
f 87/1/1 80/1/1 79/1/1
f 88/1/1 80/1/1 87/1/1
f 89/2/1 81/2/1 80/2/1
f 89/1/1 80/1/1 88/1/1
f 90/1/1 83/1/1 82/1/1
f 90/2/1 81/2/1 89/2/1
f 90/1/1 82/1/1 81/1/1
f 91/1/1 83/1/1 90/1/1
f 92/2/1 87/2/1 86/2/1
f 96/1/1 83/1/1 91/1/1
f 97/1/1 83/1/1 96/1/1
f 100/2/1 92/2/1 86/2/1
f 101/2/1 92/2/1 100/2/1
f 102/1/1 96/1/1 95/1/1
f 103/1/1 96/1/1 102/1/1
f 104/2/1 99/2/1 98/2/1
f 105/2/1 99/2/1 104/2/1
f 106/1/1 94/1/1 93/1/1
f 107/1/1 94/1/1 106/1/1
f 109/2/1 108/2/1 107/2/1
f 110/2/1 108/2/1 109/2/1
f 113/2/1 112/2/1 111/2/1
f 114/2/1 112/2/1 113/2/1
f 115/2/1 112/2/1 114/2/1
f 117/2/1 114/2/1 113/2/1
f 118/2/1 114/2/1 117/2/1
f 121/2/1 117/2/1 116/2/1
f 122/2/1 117/2/1 121/2/1
f 126/2/1 120/2/1 119/2/1
f 127/2/1 120/2/1 126/2/1
f 128/2/1 124/2/1 123/2/1
f 129/2/1 124/2/1 128/2/1
f 131/2/1 126/2/1 125/2/1
f 132/2/1 120/2/1 127/2/1
f 132/1/1 127/1/1 126/1/1
f 133/2/1 120/2/1 132/2/1
f 136/2/1 129/2/1 128/2/1
f 137/2/1 129/2/1 136/2/1
f 138/2/1 131/2/1 130/2/1
f 139/2/1 126/2/1 131/2/1
f 139/2/1 131/2/1 138/2/1
f 140/1/1 132/1/1 126/1/1
f 140/2/1 126/2/1 139/2/1
f 141/1/1 132/1/1 140/1/1
f 142/2/1 135/2/1 134/2/1
f 143/2/1 135/2/1 142/2/1
f 144/1/1 138/1/1 137/1/1
f 145/2/1 139/2/1 138/2/1
f 145/1/1 138/1/1 144/1/1
f 146/2/1 139/2/1 145/2/1
f 147/1/1 143/1/1 142/1/1
f 148/1/1 143/1/1 147/1/1
f 155/2/1 150/2/1 149/2/1
f 156/2/1 150/2/1 155/2/1
f 158/2/1 152/2/1 151/2/1
f 159/2/1 152/2/1 158/2/1
f 160/2/1 154/2/1 153/2/1
f 161/2/1 154/2/1 160/2/1
f 168/2/1 158/2/1 157/2/1
f 169/2/1 158/2/1 168/2/1
f 170/2/1 163/2/1 162/2/1
f 171/2/1 163/2/1 170/2/1
f 173/1/1 165/1/1 164/1/1
f 174/2/1 167/2/1 166/2/1
f 174/2/1 166/2/1 165/2/1
f 175/2/1 167/2/1 174/2/1
f 176/2/1 171/2/1 170/2/1
f 176/2/1 170/2/1 169/2/1
f 177/2/1 171/2/1 176/2/1
f 178/1/1 173/1/1 172/1/1
f 179/2/1 174/2/1 165/2/1
f 179/1/1 173/1/1 178/1/1
f 179/1/1 165/1/1 173/1/1
f 180/2/1 174/2/1 179/2/1
f 187/2/1 182/2/1 181/2/1
f 188/2/1 182/2/1 187/2/1
f 189/2/1 184/2/1 183/2/1
f 190/2/1 184/2/1 189/2/1
f 191/2/1 186/2/1 185/2/1
f 192/2/1 186/2/1 191/2/1
f 193/1/2 194/1/2 195/1/2
f 195/1/2 194/1/2 196/1/2
f 197/2/2 198/2/2 199/2/2
f 199/2/2 198/2/2 200/2/2
f 201/2/2 202/2/2 209/2/2
f 202/1/2 203/1/2 209/1/2
f 203/2/2 204/2/2 210/2/2
f 209/1/2 203/1/2 210/1/2
f 204/1/2 205/1/2 211/1/2
f 210/2/2 204/2/2 211/2/2
f 205/2/2 206/2/2 212/2/2
f 211/1/2 205/1/2 212/1/2
f 206/1/2 207/1/2 213/1/2
f 212/2/2 206/2/2 213/2/2
f 207/2/2 208/2/2 214/2/2
f 213/1/2 207/1/2 214/1/2
f 212/2/2 213/2/2 215/2/2
f 211/2/2 212/2/2 215/2/2
f 213/2/2 214/2/2 215/2/2
f 210/2/2 211/2/2 215/2/2
f 209/2/2 210/2/2 215/2/2
f 201/2/2 209/2/2 215/2/2
f 214/2/2 208/2/2 216/2/2
f 215/2/2 214/2/2 216/2/2
f 219/1/3 218/1/3 217/1/3
f 220/1/3 218/1/3 219/1/3
f 222/2/3 220/2/3 219/2/3
f 222/2/3 221/2/3 220/2/3
f 226/2/3 222/2/3 219/2/3
f 226/1/3 223/1/3 222/1/3
f 227/1/3 223/1/3 226/1/3
f 228/2/3 225/2/3 224/2/3
f 229/2/3 225/2/3 228/2/3
f 232/2/3 227/2/3 226/2/3
f 232/1/3 231/1/3 230/1/3
f 232/2/3 230/2/3 229/2/3
f 232/2/3 229/2/3 228/2/3
f 232/2/3 228/2/3 227/2/3
f 233/1/3 231/1/3 232/1/3
f 234/2/3 226/2/3 219/2/3
f 234/2/3 232/2/3 226/2/3
f 234/2/3 233/2/3 232/2/3
f 235/2/3 233/2/3 234/2/3
f 239/1/3 237/1/3 236/1/3
f 240/1/3 237/1/3 239/1/3
f 241/1/3 239/1/3 238/1/3
f 242/1/3 239/1/3 241/1/3
f 245/1/3 244/1/3 243/1/3
f 246/1/3 244/1/3 245/1/3
f 247/2/3 246/2/3 245/2/3
f 248/1/3 244/1/3 246/1/3
f 248/2/3 246/2/3 247/2/3
f 249/1/3 244/1/3 248/1/3
f 253/2/3 250/2/3 249/2/3
f 254/2/3 250/2/3 253/2/3
f 255/1/3 252/1/3 251/1/3
f 256/1/3 252/1/3 255/1/3
f 257/2/3 256/2/3 255/2/3
f 258/2/3 256/2/3 257/2/3
f 260/2/3 259/2/3 258/2/3
f 261/2/3 259/2/3 260/2/3
f 265/1/3 263/1/3 262/1/3
f 266/1/3 263/1/3 265/1/3
f 267/1/3 265/1/3 264/1/3
f 268/1/3 265/1/3 267/1/3
f 273/2/3 270/2/3 269/2/3
f 274/2/3 270/2/3 273/2/3
f 275/2/3 272/2/3 271/2/3
f 276/2/3 272/2/3 275/2/3
f 279/1/3 278/1/3 277/1/3
f 280/1/3 278/1/3 279/1/3
f 283/1/3 282/1/3 281/1/3
f 284/1/3 282/1/3 283/1/3
f 286/1/3 285/1/3 284/1/3
f 287/1/3 285/1/3 286/1/3
f 292/2/3 289/2/3 288/2/3
f 293/2/3 289/2/3 292/2/3
f 294/1/3 291/1/3 290/1/3
f 295/1/3 291/1/3 294/1/3
f 296/2/3 295/2/3 294/2/3
f 297/2/3 295/2/3 296/2/3
f 300/1/3 299/1/3 298/1/3
f 301/1/3 299/1/3 300/1/3
f 305/1/3 303/1/3 302/1/3
f 306/1/3 303/1/3 305/1/3
f 307/1/3 305/1/3 304/1/3
f 308/1/3 305/1/3 307/1/3
f 311/1/3 310/1/3 309/1/3
f 312/1/3 310/1/3 311/1/3
f 314/2/3 313/2/3 312/2/3
f 315/2/3 313/2/3 314/2/3
f 318/2/3 317/2/3 316/2/3
f 319/2/3 317/2/3 318/2/3
f 322/1/3 321/1/3 320/1/3
f 323/1/3 321/1/3 322/1/3
f 326/2/3 325/2/3 324/2/3
f 327/2/3 325/2/3 326/2/3
f 328/2/4 329/2/4 330/2/4
f 330/2/4 329/2/4 331/2/4
f 331/2/4 329/2/4 332/2/4
f 331/2/4 332/2/4 336/2/4
f 332/1/4 333/1/4 337/1/4
f 336/2/4 332/2/4 337/2/4
f 337/1/4 333/1/4 338/1/4
f 334/2/4 335/2/4 339/2/4
f 339/2/4 340/2/4 342/2/4
f 334/2/4 339/2/4 342/2/4
f 340/1/4 341/1/4 343/1/4
f 342/2/4 340/2/4 343/2/4
f 343/1/4 341/1/4 344/1/4
f 343/2/4 344/2/4 345/2/4
f 345/2/4 344/2/4 346/2/4
f 347/1/4 348/1/4 349/1/4
f 349/1/4 348/1/4 350/1/4
f 351/1/4 352/1/4 353/1/4
f 353/1/4 352/1/4 354/1/4
f 353/2/4 354/2/4 355/2/4
f 355/2/4 354/2/4 356/2/4
f 355/2/4 356/2/4 357/2/4
f 357/2/4 356/2/4 358/2/4
f 359/1/4 360/1/4 361/1/4
f 361/1/4 360/1/4 362/1/4
f 362/1/4 360/1/4 363/1/4
f 364/1/4 365/1/4 366/1/4
f 366/1/4 365/1/4 367/1/4
f 367/1/4 365/1/4 368/1/4
f 367/2/4 368/2/4 369/2/4
f 369/2/4 368/2/4 370/2/4
f 371/2/4 372/2/4 375/2/4
f 375/2/4 372/2/4 376/2/4
f 373/2/4 374/2/4 377/2/4
f 377/2/4 374/2/4 378/2/4
f 379/2/4 380/2/4 381/2/4
f 381/2/4 380/2/4 382/2/4
f 383/1/4 384/1/4 386/1/4
f 385/1/4 386/1/4 387/1/4
f 386/1/4 384/1/4 388/1/4
f 387/1/4 386/1/4 388/1/4
f 388/1/4 384/1/4 389/1/4
f 390/1/4 391/1/4 392/1/4
f 392/1/4 391/1/4 393/1/4
f 394/1/4 395/1/4 396/1/4
f 396/1/4 395/1/4 397/1/4
f 398/1/4 399/1/4 400/1/4
f 400/1/4 399/1/4 401/1/4
f 401/1/4 399/1/4 402/1/4
f 400/2/4 401/2/4 405/2/4
f 405/2/4 401/2/4 406/2/4
f 403/2/4 404/2/4 407/2/4
f 407/2/4 404/2/4 408/2/4
f 409/1/4 410/1/4 411/1/4
f 411/1/4 410/1/4 412/1/4
f 411/2/4 412/2/4 413/2/4
f 413/2/4 412/2/4 414/2/4
f 415/1/4 416/1/4 417/1/4
f 417/1/4 416/1/4 418/1/4
f 419/2/4 420/2/4 421/2/4
f 421/2/4 420/2/4 422/2/4
f 423/2/4 424/2/4 426/2/4
f 424/1/4 425/1/4 426/1/4
f 426/1/4 425/1/4 427/1/4
f 426/2/4 427/2/4 430/2/4
f 428/2/4 429/2/4 431/2/4
f 431/2/4 429/2/4 432/2/4
f 430/2/4 431/2/4 432/2/4
f 432/2/4 433/2/4 434/2/4
f 423/2/4 426/2/4 436/2/4
f 434/2/4 435/2/4 436/2/4
f 432/2/4 434/2/4 436/2/4
f 430/2/4 432/2/4 436/2/4
f 426/2/4 430/2/4 436/2/4
f 436/2/4 435/2/4 437/2/4
f 441/1/5 439/1/5 438/1/5
f 442/2/5 440/2/5 439/2/5
f 442/1/5 439/1/5 441/1/5
f 443/2/5 440/2/5 442/2/5
f 444/2/5 440/2/5 443/2/5
f 446/2/5 443/2/5 442/2/5
f 447/2/5 443/2/5 446/2/5
f 448/1/5 444/1/5 443/1/5
f 448/2/5 443/2/5 447/2/5
f 449/1/5 444/1/5 448/1/5
f 450/1/5 447/1/5 446/1/5
f 450/1/5 446/1/5 445/1/5
f 451/2/5 449/2/5 448/2/5
f 451/1/5 447/1/5 450/1/5
f 451/2/5 448/2/5 447/2/5
f 452/2/5 449/2/5 451/2/5
f 453/2/5 449/2/5 452/2/5
f 454/1/5 450/1/5 445/1/5
f 455/2/5 451/2/5 450/2/5
f 455/1/5 450/1/5 454/1/5
f 455/2/5 452/2/5 451/2/5
f 456/1/5 453/1/5 452/1/5
f 456/2/5 452/2/5 455/2/5
f 457/1/5 453/1/5 456/1/5
f 458/2/5 456/2/5 455/2/5
f 458/2/5 457/2/5 456/2/5
f 459/2/5 457/2/5 458/2/5
f 461/1/5 459/1/5 458/1/5
f 462/2/5 457/2/5 459/2/5
f 463/2/5 457/2/5 462/2/5
f 464/1/5 461/1/5 460/1/5
f 465/1/5 459/1/5 461/1/5
f 465/1/5 461/1/5 464/1/5
f 466/2/5 462/2/5 459/2/5
f 466/1/5 459/1/5 465/1/5
f 467/1/5 463/1/5 462/1/5
f 467/2/5 462/2/5 466/2/5
f 468/1/5 463/1/5 467/1/5
f 469/2/5 466/2/5 465/2/5
f 469/2/5 468/2/5 467/2/5
f 469/2/5 467/2/5 466/2/5
f 470/2/5 468/2/5 469/2/5
f 474/1/5 472/1/5 471/1/5
f 475/1/5 472/1/5 474/1/5
f 476/1/5 474/1/5 473/1/5
f 477/1/5 474/1/5 476/1/5
f 480/1/5 479/1/5 478/1/5
f 481/1/5 479/1/5 480/1/5
f 484/2/5 483/2/5 482/2/5
f 486/2/5 483/2/5 484/2/5
f 487/1/5 486/1/5 485/1/5
f 488/2/5 483/2/5 486/2/5
f 488/1/5 486/1/5 487/1/5
f 489/2/5 483/2/5 488/2/5
f 491/2/5 488/2/5 487/2/5
f 492/2/5 488/2/5 491/2/5
f 493/1/5 491/1/5 490/1/5
f 494/1/5 491/1/5 493/1/5
f 497/1/5 496/1/5 495/1/5
f 498/1/5 496/1/5 497/1/5
f 502/2/5 500/2/5 499/2/5
f 503/2/5 500/2/5 502/2/5
f 504/1/5 502/1/5 501/1/5
f 505/1/5 502/1/5 504/1/5
f 508/2/5 507/2/5 506/2/5
f 509/2/5 507/2/5 508/2/5
f 513/1/5 511/1/5 510/1/5
f 514/2/5 512/2/5 511/2/5
f 514/1/5 511/1/5 513/1/5
f 515/2/5 512/2/5 514/2/5
f 519/1/5 517/1/5 516/1/5
f 520/2/5 518/2/5 517/2/5
f 520/1/5 517/1/5 519/1/5
f 521/2/5 518/2/5 520/2/5
f 524/2/5 523/2/5 522/2/5
f 525/2/5 523/2/5 524/2/5
f 528/2/5 527/2/5 526/2/5
f 529/2/5 527/2/5 528/2/5
f 530/1/6 531/1/6 532/1/6
f 530/1/6 532/1/6 534/1/6
f 532/2/6 533/2/6 535/2/6
f 534/1/6 532/1/6 535/1/6
f 535/2/6 533/2/6 536/2/6
f 537/1/6 538/1/6 540/1/6
f 540/1/6 538/1/6 541/1/6
f 539/1/6 540/1/6 542/1/6
f 542/1/6 540/1/6 543/1/6
f 544/2/6 545/2/6 546/2/6
f 546/2/6 545/2/6 550/2/6
f 548/1/6 549/1/6 551/1/6
f 547/1/6 548/1/6 551/1/6
f 549/2/6 550/2/6 552/2/6
f 551/1/6 549/1/6 552/1/6
f 550/2/6 545/2/6 553/2/6
f 552/2/6 550/2/6 553/2/6
f 553/2/6 545/2/6 554/2/6
f 552/1/6 553/1/6 555/1/6
f 555/1/6 553/1/6 556/1/6
f 557/2/6 558/2/6 559/2/6
f 559/2/6 558/2/6 560/2/6
f 561/1/6 562/1/6 563/1/6
f 563/1/6 562/1/6 564/1/6
f 565/1/6 566/1/6 567/1/6
f 567/1/6 566/1/6 568/1/6
f 569/1/6 570/1/6 571/1/6
f 571/1/6 570/1/6 572/1/6
f 573/1/6 574/1/6 575/1/6
f 575/1/6 574/1/6 576/1/6
f 575/2/6 576/2/6 578/2/6
f 578/2/6 576/2/6 579/2/6
f 577/1/6 578/1/6 582/1/6
f 579/2/6 580/2/6 583/2/6
f 582/1/6 578/1/6 583/1/6
f 578/2/6 579/2/6 583/2/6
f 580/2/6 581/2/6 583/2/6
f 583/2/6 581/2/6 584/2/6
f 584/2/6 581/2/6 585/2/6
f 585/2/6 581/2/6 586/2/6
f 584/2/6 585/2/6 588/2/6
f 587/1/6 588/1/6 589/1/6
f 588/2/6 585/2/6 590/2/6
f 589/1/6 588/1/6 590/1/6
f 590/2/6 585/2/6 591/2/6
f 592/1/6 593/1/6 595/1/6
f 593/2/6 594/2/6 596/2/6
f 595/1/6 593/1/6 596/1/6
f 596/2/6 594/2/6 597/2/6
f 595/2/6 596/2/6 598/2/6
f 598/2/6 596/2/6 599/2/6
f 598/1/6 599/1/6 601/1/6
f 599/2/6 600/2/6 602/2/6
f 601/1/6 599/1/6 602/1/6
f 602/2/6 600/2/6 603/2/6
f 604/1/6 605/1/6 607/1/6
f 605/2/6 606/2/6 608/2/6
f 607/1/6 605/1/6 608/1/6
f 608/2/6 606/2/6 609/2/6
f 609/2/6 606/2/6 610/2/6
f 611/1/6 612/1/6 613/1/6
f 613/1/6 612/1/6 614/1/6
f 615/2/6 616/2/6 617/2/6
f 617/2/6 616/2/6 618/2/6
f 619/2/6 620/2/6 622/2/6
f 622/2/6 620/2/6 623/2/6
f 621/1/6 622/1/6 624/1/6
f 624/1/6 622/1/6 625/1/6
f 626/2/6 627/2/6 628/2/6
f 628/2/6 627/2/6 629/2/6
f 628/1/6 629/1/6 631/1/6
f 631/1/6 629/1/6 632/1/6
f 630/2/6 631/2/6 633/2/6
f 631/2/6 632/2/6 633/2/6
f 633/2/6 632/2/6 634/2/6
f 635/2/6 636/2/6 639/2/6
f 639/2/6 636/2/6 640/2/6
f 637/1/6 638/1/6 641/1/6
f 638/2/6 639/2/6 642/2/6
f 641/1/6 638/1/6 642/1/6
f 642/2/6 639/2/6 643/2/6
f 644/1/6 645/1/6 647/1/6
f 645/2/6 646/2/6 648/2/6
f 647/1/6 645/1/6 648/1/6
f 648/2/6 646/2/6 649/2/6
f 647/2/6 648/2/6 650/2/6
f 650/2/6 648/2/6 651/2/6
f 652/2/6 653/2/6 654/2/6
f 654/2/6 653/2/6 655/2/6
f 656/1/6 657/1/6 659/1/6
f 657/2/6 658/2/6 660/2/6
f 659/1/6 657/1/6 660/1/6
f 660/2/6 658/2/6 661/2/6
f 661/2/6 658/2/6 663/2/6
f 664/2/6 665/2/6 666/2/6
f 666/2/6 665/2/6 667/2/6
f 662/2/6 663/2/6 668/2/6
f 663/2/6 658/2/6 669/2/6
f 668/2/6 663/2/6 669/2/6
f 669/2/6 658/2/6 671/2/6
f 670/1/6 671/1/6 672/1/6
f 671/2/6 658/2/6 673/2/6
f 672/1/6 671/1/6 673/1/6
f 672/2/6 673/2/6 674/2/6
f 673/2/6 658/2/6 675/2/6
f 674/2/6 673/2/6 675/2/6
f 675/2/6 658/2/6 676/2/6
f 676/2/6 658/2/6 677/2/6
