# MagicaVoxel @ Ephtracy

# group
o 

# material
mtllib Slope4.mtl
usemtl palette

# normals
vn -1 0 0
vn 1 0 0
vn 0 0 1
vn 0 0 -1
vn 0 -1 0
vn 0 1 0

# texcoords
vt 0.0371094 0.5
vt 0.0449219 0.5

# verts
v -0.4 -0.4 0.4
v -0.4 -0.4 0.3
v -0.4 -0.4 0.2
v -0.4 -0.4 0.1
v -0.4 -0.4 0
v -0.4 -0.4 -0.1
v -0.4 -0.4 -0.5
v -0.4 -0.3 0.4
v -0.4 -0.3 0.3
v -0.4 -0.3 0.2
v -0.4 -0.3 0.1
v -0.4 -0.3 0
v -0.4 -0.3 -0.1
v -0.4 -0.3 -0.3
v -0.4 -0.3 -0.4
v -0.4 -0.3 -0.5
v -0.4 -0.2 0.2
v -0.4 -0.2 0.1
v -0.4 -0.2 -0.3
v -0.4 -0.2 -0.4
v -0.3 -0.4 0.2
v -0.3 -0.4 0.1
v -0.3 -0.3 0.3
v -0.3 -0.3 0.2
v -0.3 -0.3 0.1
v -0.3 -0.3 0
v -0.3 -0.3 -0.1
v -0.3 -0.3 -0.2
v -0.3 -0.3 -0.3
v -0.3 -0.3 -0.4
v -0.3 -0.3 -0.5
v -0.3 -0.2 0.2
v -0.3 -0.2 0
v -0.3 -0.2 -0.1
v -0.3 -0.2 -0.2
v -0.3 -0.2 -0.3
v -0.3 -0.2 -0.4
v -0.3 -0.2 -0.5
v -0.3 -0.1 0.3
v -0.3 -0.1 0.2
v -0.3 -0.1 0
v -0.3 -0.1 -0.1
v -0.3 -0.1 -0.2
v -0.3 -0.1 -0.3
v -0.3 -0.1 -0.4
v -0.3 -0.1 -0.5
v -0.2 -0.3 0.4
v -0.2 -0.3 0.3
v -0.2 -0.3 0.1
v -0.2 -0.3 0
v -0.2 -0.2 0.4
v -0.2 -0.2 0.3
v -0.2 -0.2 0.1
v -0.2 -0.2 0
v -0.2 -0.2 -0.1
v -0.2 -0.2 -0.2
v -0.2 -0.1 0.4
v -0.2 -0.1 0.3
v -0.2 -0.1 0.2
v -0.2 -0.1 0.1
v -0.2 -0.1 0
v -0.2 -0.1 -0.1
v -0.2 -0.1 -0.2
v -0.2 -0.1 -0.3
v -0.2 -0.1 -0.4
v -0.2 -0.1 -0.5
v -0.2 0 0.4
v -0.2 0 0.3
v -0.2 0 0.2
v -0.2 0 0.1
v -0.2 0 0
v -0.2 0 -0.1
v -0.2 0 -0.2
v -0.2 0 -0.3
v -0.2 0 -0.4
v -0.2 0 -0.5
v -0.2 0.1 0.3
v -0.2 0.1 0.2
v -0.2 0.1 0.1
v -0.2 0.1 -0.1
v -0.2 0.1 -0.3
v -0.2 0.1 -0.4
v -0.2 0.1 -0.5
v -0.2 0.2 -0.4
v -0.2 0.2 -0.5
v -0.2 0.3 -0.3
v -0.2 0.3 -0.4
v -0.2 0.4 -0.3
v -0.2 0.4 -0.4
v -0.2 0.4 -0.5
v -0.2 0.5 -0.4
v -0.2 0.5 -0.5
v -0.1 -0.1 0
v -0.1 -0.1 -0.1
v -0.1 -0.1 -0.2
v -0.1 -0.1 -0.3
v -0.1 0 0.2
v -0.1 0 0.1
v -0.1 0 0
v -0.1 0 -0.1
v -0.1 0 -0.2
v -0.1 0 -0.3
v -0.1 0 -0.4
v -0.1 0 -0.5
v -0.1 0.1 0.4
v -0.1 0.1 0.3
v -0.1 0.1 0.2
v -0.1 0.1 0.1
v -0.1 0.1 0
v -0.1 0.1 -0.1
v -0.1 0.1 -0.2
v -0.1 0.1 -0.3
v -0.1 0.1 -0.4
v -0.1 0.1 -0.5
v -0.1 0.2 0.3
v -0.1 0.2 0.1
v -0.1 0.2 0
v -0.1 0.2 -0.1
v -0.1 0.2 -0.2
v -0.1 0.2 -0.3
v -0.1 0.2 -0.4
v -0.1 0.2 -0.5
v -0.1 0.3 0.4
v -0.1 0.3 0.3
v -0.1 0.3 0.2
v -0.1 0.3 0.1
v -0.1 0.3 0
v -0.1 0.3 -0.1
v -0.1 0.3 -0.2
v -0.1 0.3 -0.3
v -0.1 0.3 -0.4
v -0.1 0.4 0.2
v -0.1 0.4 0.1
v -0.1 0.4 0
v -0.1 0.4 -0.2
v -0.1 0.4 -0.3
v -0.1 0.4 -0.4
v -0.1 0.4 -0.5
v -0.1 0.5 0.1
v -0.1 0.5 0
v -0.1 0.5 -0.2
v -0.1 0.5 -0.3
v 0 -0.2 0.2
v 0 -0.2 0.1
v 0 -0.1 0.2
v 0 -0.1 0.1
v 0 0 0.4
v 0 0 0.3
v 0 0.1 0.4
v 0 0.1 0.3
v 0 0.1 -0.1
v 0 0.1 -0.2
v 0 0.1 -0.3
v 0 0.1 -0.4
v 0 0.2 0.3
v 0 0.2 0.1
v 0 0.2 0
v 0 0.2 -0.1
v 0 0.2 -0.2
v 0 0.2 -0.3
v 0 0.2 -0.4
v 0 0.3 0.4
v 0 0.3 0.3
v 0 0.3 0.2
v 0 0.3 0.1
v 0 0.3 0
v 0 0.3 -0.1
v 0 0.3 -0.2
v 0 0.3 -0.3
v 0 0.4 0.3
v 0 0.4 0.2
v 0 0.4 0.1
v 0 0.4 0
v 0 0.4 -0.1
v 0 0.4 -0.2
v 0 0.4 -0.3
v 0 0.4 -0.4
v 0 0.5 0.4
v 0 0.5 0.3
v 0 0.5 0.2
v 0 0.5 0
v 0 0.5 -0.1
v 0 0.5 -0.2
v 0 0.5 -0.3
v 0 0.5 -0.4
v 0.1 -0.2 -0.2
v 0.1 -0.2 -0.3
v 0.1 -0.1 -0.2
v 0.1 -0.1 -0.3
v 0.1 0.4 0.2
v 0.1 0.4 0.1
v 0.1 0.5 0.2
v 0.1 0.5 0.1
v -0.2 -0.2 -0.2
v -0.2 -0.2 -0.3
v -0.2 -0.1 -0.2
v -0.2 -0.1 -0.3
v 0.5 -0.4 0.4
v 0.5 -0.4 -0.5
v 0.5 0.4 0.3
v 0.5 0.4 0.2
v 0.5 0.4 0
v 0.5 0.4 -0.1
v 0.5 0.4 -0.2
v 0.5 0.4 -0.3
v 0.5 0.5 0.4
v 0.5 0.5 0.3
v 0.5 0.5 0.2
v 0.5 0.5 0
v 0.5 0.5 -0.1
v 0.5 0.5 -0.2
v 0.5 0.5 -0.3
v 0.5 0.5 -0.5
v -0.4 -0.4 0.4
v -0.4 -0.3 0.4
v -0.2 -0.3 0.4
v -0.2 -0.2 0.4
v -0.2 -0.1 0.4
v -0.2 0 0.4
v -0.1 0.1 0.4
v -0.1 0.3 0.4
v 0 -0.2 0.4
v 0 -0.1 0.4
v 0 0 0.4
v 0 0.1 0.4
v 0 0.3 0.4
v 0 0.5 0.4
v 0.5 -0.4 0.4
v 0.5 0.5 0.4
v -0.3 -0.3 0.3
v -0.3 -0.1 0.3
v -0.2 -0.3 0.3
v -0.2 -0.2 0.3
v -0.2 -0.1 0.3
v -0.2 0 0.3
v -0.2 0.1 0.3
v -0.1 0 0.3
v -0.1 0.1 0.3
v 0 0 0.3
v 0 0.1 0.3
v -0.4 -0.3 0.2
v -0.4 -0.2 0.2
v -0.3 -0.3 0.2
v -0.3 -0.2 0.2
v -0.1 0.3 0.2
v -0.1 0.4 0.2
v 0 0.3 0.2
v 0 0.4 0.2
v -0.4 -0.4 0.1
v -0.4 -0.3 0.1
v -0.3 -0.4 0.1
v -0.3 -0.3 0.1
v -0.2 -0.2 0.1
v -0.2 -0.1 0.1
v -0.2 0 0.1
v -0.2 0.1 0.1
v -0.1 0 0.1
v -0.1 0.1 0.1
v -0.1 0.2 0.1
v -0.1 0.3 0.1
v -0.1 0.4 0.1
v -0.1 0.5 0.1
v 0 -0.2 0.1
v 0 -0.1 0.1
v 0 0.2 0.1
v 0 0.3 0.1
v 0 0.4 0.1
v 0 0.5 0.1
v 0.1 0.4 0.1
v 0.1 0.5 0.1
v -0.3 -0.3 0
v -0.3 -0.2 0
v -0.3 -0.1 0
v -0.2 -0.3 0
v -0.2 -0.2 0
v -0.2 -0.1 0
v -0.1 0.3 0
v -0.1 0.4 0
v 0 0.3 0
v 0 0.4 0
v -0.2 -0.1 -0.1
v -0.2 0 -0.1
v -0.1 -0.1 -0.1
v -0.1 0 -0.1
v -0.1 0.2 -0.1
v -0.1 0.3 -0.1
v 0 0.2 -0.1
v 0 0.3 -0.1
v -0.3 -0.2 -0.2
v -0.3 -0.1 -0.2
v -0.2 -0.2 -0.2
v -0.2 -0.1 -0.2
v -0.1 0.4 -0.2
v -0.1 0.5 -0.2
v 0 0.4 -0.2
v 0 0.5 -0.2
v -0.4 -0.3 -0.3
v -0.4 -0.2 -0.3
v -0.3 -0.3 -0.3
v -0.3 -0.2 -0.3
v -0.2 -0.2 -0.3
v -0.2 -0.1 -0.3
v -0.2 0 -0.3
v -0.2 0.1 -0.3
v -0.2 0.3 -0.3
v -0.2 0.4 -0.3
v -0.1 -0.1 -0.3
v -0.1 0 -0.3
v -0.1 0.1 -0.3
v -0.1 0.2 -0.3
v -0.1 0.3 -0.3
v -0.1 0.4 -0.3
v 0 0.2 -0.3
v 0 0.3 -0.3
v 0.1 -0.2 -0.3
v 0.1 -0.1 -0.3
v -0.2 0.1 -0.4
v -0.2 0.2 -0.4
v -0.2 0.4 -0.4
v -0.2 0.5 -0.4
v -0.1 0.1 -0.4
v -0.1 0.2 -0.4
v -0.1 0.4 -0.4
v -0.1 0.5 -0.4
v 0 0.1 -0.4
v 0 0.2 -0.4
v 0 0.4 -0.4
v 0 0.5 -0.4
v -0.1 0.2 0.3
v -0.1 0.3 0.3
v 0 0.2 0.3
v 0 0.3 0.3
v -0.4 -0.4 0.2
v -0.4 -0.3 0.2
v -0.3 -0.4 0.2
v -0.3 -0.3 0.2
v -0.3 -0.2 0.2
v -0.3 -0.1 0.2
v -0.2 -0.2 0.2
v -0.2 -0.1 0.2
v -0.2 0 0.2
v -0.2 0.1 0.2
v -0.1 0 0.2
v -0.1 0.1 0.2
v 0 -0.2 0.2
v 0 -0.1 0.2
v 0 0.4 0.2
v 0 0.5 0.2
v 0.1 0.4 0.2
v 0.1 0.5 0.2
v -0.4 -0.3 0.1
v -0.4 -0.2 0.1
v -0.2 -0.3 0.1
v -0.2 -0.2 0.1
v -0.1 0.3 0.1
v -0.1 0.4 0.1
v 0 0.3 0.1
v 0 0.4 0.1
v -0.2 -0.1 0
v -0.2 0 0
v -0.1 -0.1 0
v -0.1 0 0
v -0.1 0.2 0
v -0.1 0.3 0
v -0.1 0.4 0
v -0.1 0.5 0
v 0 0.2 0
v 0 0.3 0
v 0 0.4 0
v 0 0.5 0
v -0.3 -0.2 -0.1
v -0.3 -0.1 -0.1
v -0.2 -0.2 -0.1
v -0.2 -0.1 -0.1
v -0.2 0 -0.1
v -0.2 0.1 -0.1
v -0.1 0 -0.1
v -0.1 0.1 -0.1
v -0.1 0.2 -0.1
v 0 0.1 -0.1
v 0 0.2 -0.1
v -0.2 -0.2 -0.2
v -0.2 -0.1 -0.2
v -0.2 0 -0.2
v -0.1 -0.1 -0.2
v -0.1 0 -0.2
v -0.1 0.2 -0.2
v -0.1 0.3 -0.2
v 0 0.2 -0.2
v 0 0.3 -0.2
v 0.1 -0.2 -0.2
v 0.1 -0.1 -0.2
v -0.1 0.4 -0.3
v -0.1 0.5 -0.3
v 0 0.4 -0.3
v 0 0.5 -0.3
v -0.4 -0.3 -0.4
v -0.4 -0.2 -0.4
v -0.3 -0.3 -0.4
v -0.3 -0.2 -0.4
v -0.2 0 -0.4
v -0.2 0.1 -0.4
v -0.2 0.3 -0.4
v -0.2 0.4 -0.4
v -0.1 0 -0.4
v -0.1 0.1 -0.4
v -0.1 0.3 -0.4
v -0.1 0.4 -0.4
v -0.4 -0.4 -0.5
v -0.4 -0.3 -0.5
v -0.3 -0.3 -0.5
v -0.3 -0.2 -0.5
v -0.3 -0.1 -0.5
v -0.2 -0.2 -0.5
v -0.2 -0.1 -0.5
v -0.2 0 -0.5
v -0.2 0.1 -0.5
v -0.2 0.2 -0.5
v -0.2 0.4 -0.5
v -0.2 0.5 -0.5
v -0.1 0 -0.5
v -0.1 0.1 -0.5
v -0.1 0.2 -0.5
v -0.1 0.4 -0.5
v -0.1 0.5 -0.5
v 0.1 0.1 -0.5
v 0.1 0.2 -0.5
v 0.2 0.1 -0.5
v 0.2 0.2 -0.5
v 0.5 -0.4 -0.5
v 0.5 0.5 -0.5
v -0.4 -0.4 0.4
v 0.5 -0.4 0.4
v -0.4 -0.4 0.3
v -0.3 -0.4 0.3
v -0.4 -0.4 0.2
v -0.3 -0.4 0.2
v -0.4 -0.4 0.1
v -0.3 -0.4 0.1
v -0.4 -0.4 0
v -0.3 -0.4 0
v -0.4 -0.4 -0.1
v -0.3 -0.4 -0.1
v -0.4 -0.4 -0.5
v 0.5 -0.4 -0.5
v -0.4 -0.3 0.2
v -0.3 -0.3 0.2
v -0.4 -0.3 0.1
v -0.3 -0.3 0.1
v -0.2 -0.1 0.2
v 0 -0.1 0.2
v -0.2 -0.1 0.1
v 0 -0.1 0.1
v -0.1 -0.1 -0.2
v 0.1 -0.1 -0.2
v -0.1 -0.1 -0.3
v 0.1 -0.1 -0.3
v -0.2 0 0
v -0.1 0 0
v -0.2 0 -0.1
v -0.1 0 -0.1
v -0.1 0.1 0.4
v 0 0.1 0.4
v -0.1 0.1 0.3
v 0 0.1 0.3
v -0.2 0.1 -0.4
v -0.1 0.1 -0.4
v -0.2 0.1 -0.5
v -0.1 0.1 -0.5
v -0.1 0.2 -0.1
v 0 0.2 -0.1
v -0.1 0.2 -0.2
v 0 0.2 -0.2
v -0.1 0.2 -0.3
v 0 0.2 -0.3
v -0.1 0.2 -0.4
v 0 0.2 -0.4
v -0.1 0.3 0.2
v 0 0.3 0.2
v -0.1 0.3 0.1
v 0 0.3 0.1
v -0.1 0.3 0
v 0 0.3 0
v -0.1 0.3 -0.1
v 0 0.3 -0.1
v -0.1 0.3 -0.2
v 0 0.3 -0.2
v -0.2 0.3 -0.3
v -0.1 0.3 -0.3
v 0 0.3 -0.3
v -0.2 0.3 -0.4
v -0.1 0.3 -0.4
v -0.1 0.4 0.1
v 0 0.4 0.1
v -0.1 0.4 0
v 0 0.4 0
v -0.2 0.4 -0.4
v -0.1 0.4 -0.4
v -0.2 0.4 -0.5
v -0.1 0.4 -0.5
v -0.4 -0.3 0.4
v -0.2 -0.3 0.4
v -0.4 -0.3 0.3
v -0.3 -0.3 0.3
v -0.2 -0.3 0.3
v -0.4 -0.3 0.2
v -0.3 -0.3 0.2
v -0.4 -0.3 0.1
v -0.2 -0.3 0.1
v -0.4 -0.3 0
v -0.3 -0.3 0
v -0.2 -0.3 0
v -0.4 -0.3 -0.1
v -0.3 -0.3 -0.1
v -0.3 -0.3 -0.2
v -0.4 -0.3 -0.3
v -0.3 -0.3 -0.3
v -0.4 -0.3 -0.4
v -0.3 -0.3 -0.4
v -0.4 -0.3 -0.5
v -0.3 -0.3 -0.5
v -0.4 -0.2 0.2
v -0.3 -0.2 0.2
v -0.2 -0.2 0.2
v 0 -0.2 0.2
v -0.4 -0.2 0.1
v -0.2 -0.2 0.1
v 0 -0.2 0.1
v -0.3 -0.2 -0.1
v -0.2 -0.2 -0.1
v -0.3 -0.2 -0.2
v -0.2 -0.2 -0.2
v 0.1 -0.2 -0.2
v -0.4 -0.2 -0.3
v -0.3 -0.2 -0.3
v -0.2 -0.2 -0.3
v 0.1 -0.2 -0.3
v -0.4 -0.2 -0.4
v -0.3 -0.2 -0.4
v -0.3 -0.1 0.3
v -0.2 -0.1 0.3
v -0.3 -0.1 0.2
v -0.2 -0.1 0.2
v -0.3 -0.1 0
v -0.2 -0.1 0
v -0.1 -0.1 0
v -0.3 -0.1 -0.1
v -0.2 -0.1 -0.1
v -0.1 -0.1 -0.1
v -0.3 -0.1 -0.2
v -0.2 -0.1 -0.2
v -0.3 -0.1 -0.3
v -0.2 -0.1 -0.3
v -0.3 -0.1 -0.4
v -0.2 -0.1 -0.4
v -0.3 -0.1 -0.5
v -0.2 -0.1 -0.5
v -0.2 0 0.4
v 0 0 0.4
v -0.2 0 0.3
v -0.1 0 0.3
v 0 0 0.3
v -0.2 0 0.2
v -0.1 0 0.2
v -0.2 0 0.1
v -0.1 0 0.1
v -0.2 0 -0.1
v -0.1 0 -0.1
v -0.2 0 -0.2
v -0.1 0 -0.2
v -0.2 0 -0.4
v -0.1 0 -0.4
v -0.2 0 -0.5
v -0.1 0 -0.5
v -0.2 0.1 0.3
v -0.1 0.1 0.3
v -0.2 0.1 0.2
v -0.1 0.1 0.2
v -0.2 0.1 0.1
v -0.1 0.1 0.1
v -0.1 0.1 0
v -0.2 0.1 -0.1
v -0.1 0.1 -0.1
v 0 0.1 -0.1
v -0.1 0.1 -0.2
v 0 0.1 -0.2
v -0.2 0.1 -0.3
v -0.1 0.1 -0.3
v 0 0.1 -0.3
v -0.2 0.1 -0.4
v -0.1 0.1 -0.4
v 0 0.1 -0.4
v -0.1 0.2 0.3
v 0 0.2 0.3
v -0.1 0.2 0.1
v 0 0.2 0.1
v -0.1 0.2 0
v 0 0.2 0
v -0.1 0.2 -0.1
v 0 0.2 -0.1
v -0.2 0.2 -0.4
v -0.1 0.2 -0.4
v -0.2 0.2 -0.5
v -0.1 0.2 -0.5
v -0.1 0.3 0.4
v 0 0.3 0.4
v -0.1 0.3 0.3
v 0 0.3 0.3
v -0.1 0.3 0.1
v 0 0.3 0.1
v -0.1 0.3 0
v 0 0.3 0
v -0.1 0.4 0.2
v 0 0.4 0.2
v 0.1 0.4 0.2
v -0.1 0.4 0.1
v 0 0.4 0.1
v 0.1 0.4 0.1
v -0.1 0.4 0
v 0 0.4 0
v 0 0.4 -0.1
v -0.1 0.4 -0.2
v 0 0.4 -0.2
v -0.2 0.4 -0.3
v -0.1 0.4 -0.3
v 0 0.4 -0.3
v -0.2 0.4 -0.4
v -0.1 0.4 -0.4
v 0 0.4 -0.4
v 0 0.5 0.4
v 0.5 0.5 0.4
v 0 0.5 0.3
v 0.1 0.5 0.3
v 0.4 0.5 0.3
v 0.5 0.5 0.3
v 0 0.5 0.2
v 0.1 0.5 0.2
v 0.4 0.5 0.2
v 0.5 0.5 0.2
v -0.1 0.5 0.1
v 0 0.5 0.1
v 0.1 0.5 0.1
v -0.1 0.5 0
v 0 0.5 0
v 0.4 0.5 0
v 0.5 0.5 0
v 0 0.5 -0.1
v 0.1 0.5 -0.1
v 0.4 0.5 -0.1
v 0.5 0.5 -0.1
v -0.1 0.5 -0.2
v 0 0.5 -0.2
v 0.1 0.5 -0.2
v 0.4 0.5 -0.2
v 0.5 0.5 -0.2
v -0.1 0.5 -0.3
v 0 0.5 -0.3
v 0.4 0.5 -0.3
v 0.5 0.5 -0.3
v -0.2 0.5 -0.4
v -0.1 0.5 -0.4
v 0 0.5 -0.4
v -0.2 0.5 -0.5
v -0.1 0.5 -0.5
v 0.5 0.5 -0.5

# faces
f 8/2/1 2/2/1 1/2/1
f 9/1/1 3/1/1 2/1/1
f 9/2/1 2/2/1 8/2/1
f 10/1/1 3/1/1 9/1/1
f 11/2/1 5/2/1 4/2/1
f 12/1/1 6/1/1 5/1/1
f 12/2/1 5/2/1 11/2/1
f 13/2/1 7/2/1 6/2/1
f 13/1/1 6/1/1 12/1/1
f 14/2/1 7/2/1 13/2/1
f 15/2/1 7/2/1 14/2/1
f 16/2/1 7/2/1 15/2/1
f 17/1/1 11/1/1 10/1/1
f 18/1/1 11/1/1 17/1/1
f 19/1/1 15/1/1 14/1/1
f 20/1/1 15/1/1 19/1/1
f 24/2/1 22/2/1 21/2/1
f 25/2/1 22/2/1 24/2/1
f 32/2/1 24/2/1 23/2/1
f 33/2/1 27/2/1 26/2/1
f 34/1/1 28/1/1 27/1/1
f 34/2/1 27/2/1 33/2/1
f 35/2/1 29/2/1 28/2/1
f 35/1/1 28/1/1 34/1/1
f 36/2/1 29/2/1 35/2/1
f 37/2/1 31/2/1 30/2/1
f 38/2/1 31/2/1 37/2/1
f 39/2/1 32/2/1 23/2/1
f 40/2/1 32/2/1 39/2/1
f 41/1/1 34/1/1 33/1/1
f 42/1/1 34/1/1 41/1/1
f 43/1/1 36/1/1 35/1/1
f 44/2/1 37/2/1 36/2/1
f 44/1/1 36/1/1 43/1/1
f 45/1/1 38/1/1 37/1/1
f 45/2/1 37/2/1 44/2/1
f 46/1/1 38/1/1 45/1/1
f 51/2/1 48/2/1 47/2/1
f 52/2/1 48/2/1 51/2/1
f 53/2/1 50/2/1 49/2/1
f 54/2/1 50/2/1 53/2/1
f 57/1/1 52/1/1 51/1/1
f 58/1/1 52/1/1 57/1/1
f 60/2/1 54/2/1 53/2/1
f 61/2/1 54/2/1 60/2/1
f 62/2/1 56/2/1 55/2/1
f 63/2/1 56/2/1 62/2/1
f 67/2/1 59/2/1 58/2/1
f 67/2/1 58/2/1 57/2/1
f 67/2/1 60/2/1 59/2/1
f 68/2/1 60/2/1 67/2/1
f 69/2/1 60/2/1 68/2/1
f 70/1/1 61/1/1 60/1/1
f 70/2/1 60/2/1 69/2/1
f 71/1/1 61/1/1 70/1/1
f 72/2/1 63/2/1 62/2/1
f 73/2/1 63/2/1 72/2/1
f 74/2/1 66/2/1 65/2/1
f 74/2/1 65/2/1 64/2/1
f 75/2/1 66/2/1 74/2/1
f 76/2/1 66/2/1 75/2/1
f 77/1/1 69/1/1 68/1/1
f 78/1/1 69/1/1 77/1/1
f 79/1/1 72/1/1 71/1/1
f 79/1/1 71/1/1 70/1/1
f 80/1/1 72/1/1 79/1/1
f 81/1/1 75/1/1 74/1/1
f 82/1/1 75/1/1 81/1/1
f 84/1/1 83/1/1 82/1/1
f 85/1/1 83/1/1 84/1/1
f 88/2/1 87/2/1 86/2/1
f 89/2/1 87/2/1 88/2/1
f 91/1/1 90/1/1 89/1/1
f 92/1/1 90/1/1 91/1/1
f 99/1/1 94/1/1 93/1/1
f 100/1/1 94/1/1 99/1/1
f 101/2/1 96/2/1 95/2/1
f 102/2/1 96/2/1 101/2/1
f 107/2/1 98/2/1 97/2/1
f 108/2/1 98/2/1 107/2/1
f 110/1/1 101/1/1 100/1/1
f 111/2/1 102/2/1 101/2/1
f 111/1/1 101/1/1 110/1/1
f 112/2/1 102/2/1 111/2/1
f 113/2/1 104/2/1 103/2/1
f 114/2/1 104/2/1 113/2/1
f 115/2/1 106/2/1 105/2/1
f 115/1/1 109/1/1 108/1/1
f 115/1/1 107/1/1 106/1/1
f 115/1/1 108/1/1 107/1/1
f 116/1/1 109/1/1 115/1/1
f 117/2/1 110/2/1 109/2/1
f 117/1/1 109/1/1 116/1/1
f 118/2/1 110/2/1 117/2/1
f 123/2/1 115/2/1 105/2/1
f 124/2/1 115/2/1 123/2/1
f 126/1/1 117/1/1 116/1/1
f 127/1/1 117/1/1 126/1/1
f 128/2/1 119/2/1 118/2/1
f 129/2/1 119/2/1 128/2/1
f 130/2/1 122/2/1 121/2/1
f 130/2/1 121/2/1 120/2/1
f 131/2/1 122/2/1 130/2/1
f 132/1/1 126/1/1 125/1/1
f 133/1/1 126/1/1 132/1/1
f 134/2/1 129/2/1 128/2/1
f 134/2/1 128/2/1 127/2/1
f 134/2/1 130/2/1 129/2/1
f 135/2/1 130/2/1 134/2/1
f 136/2/1 130/2/1 135/2/1
f 137/2/1 122/2/1 131/2/1
f 138/2/1 122/2/1 137/2/1
f 139/1/1 134/1/1 133/1/1
f 140/1/1 134/1/1 139/1/1
f 141/2/1 136/2/1 135/2/1
f 142/2/1 136/2/1 141/2/1
f 145/2/1 144/2/1 143/2/1
f 146/2/1 144/2/1 145/2/1
f 149/2/1 148/2/1 147/2/1
f 150/2/1 148/2/1 149/2/1
f 158/2/1 152/2/1 151/2/1
f 159/1/1 153/1/1 152/1/1
f 159/2/1 152/2/1 158/2/1
f 160/2/1 154/2/1 153/2/1
f 160/1/1 153/1/1 159/1/1
f 161/2/1 154/2/1 160/2/1
f 163/2/1 156/2/1 155/2/1
f 164/2/1 156/2/1 163/2/1
f 165/2/1 156/2/1 164/2/1
f 166/2/1 158/2/1 157/2/1
f 167/2/1 158/2/1 166/2/1
f 168/2/1 160/2/1 159/2/1
f 169/2/1 160/2/1 168/2/1
f 170/2/1 163/2/1 162/2/1
f 170/2/1 164/2/1 163/2/1
f 171/2/1 164/2/1 170/2/1
f 172/2/1 166/2/1 165/2/1
f 173/2/1 166/2/1 172/2/1
f 178/2/1 170/2/1 162/2/1
f 179/1/1 171/1/1 170/1/1
f 179/2/1 170/2/1 178/2/1
f 180/1/1 171/1/1 179/1/1
f 181/2/1 174/2/1 173/2/1
f 182/1/1 175/1/1 174/1/1
f 182/2/1 174/2/1 181/2/1
f 183/1/1 175/1/1 182/1/1
f 184/2/1 177/2/1 176/2/1
f 185/2/1 177/2/1 184/2/1
f 188/2/1 187/2/1 186/2/1
f 189/2/1 187/2/1 188/2/1
f 192/2/1 191/2/1 190/2/1
f 193/2/1 191/2/1 192/2/1
f 194/1/2 195/1/2 196/1/2
f 196/1/2 195/1/2 197/1/2
f 198/2/2 199/2/2 200/2/2
f 200/2/2 199/2/2 201/2/2
f 201/2/2 199/2/2 202/2/2
f 202/2/2 199/2/2 203/2/2
f 203/2/2 199/2/2 204/2/2
f 204/2/2 199/2/2 205/2/2
f 198/2/2 200/2/2 206/2/2
f 200/1/2 201/1/2 207/1/2
f 206/2/2 200/2/2 207/2/2
f 201/2/2 202/2/2 208/2/2
f 207/1/2 201/1/2 208/1/2
f 202/1/2 203/1/2 209/1/2
f 208/2/2 202/2/2 209/2/2
f 203/2/2 204/2/2 210/2/2
f 209/1/2 203/1/2 210/1/2
f 204/1/2 205/1/2 211/1/2
f 210/2/2 204/2/2 211/2/2
f 205/2/2 199/2/2 212/2/2
f 211/1/2 205/1/2 212/1/2
f 212/2/2 199/2/2 213/2/2
f 216/2/3 215/2/3 214/2/3
f 222/2/3 217/2/3 216/2/3
f 222/1/3 218/1/3 217/1/3
f 223/2/3 219/2/3 218/2/3
f 223/1/3 218/1/3 222/1/3
f 224/2/3 219/2/3 223/2/3
f 225/2/3 221/2/3 220/2/3
f 226/2/3 221/2/3 225/2/3
f 228/2/3 216/2/3 214/2/3
f 228/2/3 227/2/3 226/2/3
f 228/2/3 226/2/3 225/2/3
f 228/2/3 225/2/3 224/2/3
f 228/2/3 224/2/3 223/2/3
f 228/2/3 223/2/3 222/2/3
f 228/2/3 222/2/3 216/2/3
f 229/2/3 227/2/3 228/2/3
f 232/2/3 231/2/3 230/2/3
f 233/2/3 231/2/3 232/2/3
f 234/2/3 231/2/3 233/2/3
f 237/1/3 236/1/3 235/1/3
f 238/1/3 236/1/3 237/1/3
f 239/2/3 238/2/3 237/2/3
f 240/2/3 238/2/3 239/2/3
f 243/1/3 242/1/3 241/1/3
f 244/1/3 242/1/3 243/1/3
f 247/1/3 246/1/3 245/1/3
f 248/1/3 246/1/3 247/1/3
f 251/2/3 250/2/3 249/2/3
f 252/2/3 250/2/3 251/2/3
f 257/1/3 256/1/3 255/1/3
f 258/1/3 256/1/3 257/1/3
f 263/2/3 254/2/3 253/2/3
f 264/2/3 254/2/3 263/2/3
f 265/1/3 260/1/3 259/1/3
f 266/1/3 260/1/3 265/1/3
f 267/1/3 262/1/3 261/1/3
f 268/1/3 262/1/3 267/1/3
f 269/2/3 268/2/3 267/2/3
f 270/2/3 268/2/3 269/2/3
f 274/2/3 272/2/3 271/2/3
f 275/1/3 273/1/3 272/1/3
f 275/2/3 272/2/3 274/2/3
f 276/1/3 273/1/3 275/1/3
f 279/2/3 278/2/3 277/2/3
f 280/2/3 278/2/3 279/2/3
f 283/2/3 282/2/3 281/2/3
f 284/2/3 282/2/3 283/2/3
f 287/2/3 286/2/3 285/2/3
f 288/2/3 286/2/3 287/2/3
f 291/1/3 290/1/3 289/1/3
f 292/1/3 290/1/3 291/1/3
f 295/2/3 294/2/3 293/2/3
f 296/2/3 294/2/3 295/2/3
f 299/1/3 298/1/3 297/1/3
f 300/1/3 298/1/3 299/1/3
f 307/2/3 302/2/3 301/2/3
f 307/2/3 303/2/3 302/2/3
f 308/1/3 304/1/3 303/1/3
f 308/2/3 303/2/3 307/2/3
f 309/1/3 304/1/3 308/1/3
f 311/2/3 306/2/3 305/2/3
f 312/2/3 306/2/3 311/2/3
f 313/2/3 311/2/3 310/2/3
f 314/2/3 311/2/3 313/2/3
f 315/2/3 307/2/3 301/2/3
f 316/2/3 307/2/3 315/2/3
f 321/1/3 318/1/3 317/1/3
f 322/1/3 318/1/3 321/1/3
f 323/1/3 320/1/3 319/1/3
f 324/1/3 320/1/3 323/1/3
f 325/2/3 322/2/3 321/2/3
f 326/2/3 322/2/3 325/2/3
f 327/2/3 324/2/3 323/2/3
f 328/2/3 324/2/3 327/2/3
f 329/2/4 330/2/4 331/2/4
f 331/2/4 330/2/4 332/2/4
f 333/1/4 334/1/4 335/1/4
f 335/1/4 334/1/4 336/1/4
f 337/2/4 338/2/4 339/2/4
f 339/2/4 338/2/4 340/2/4
f 341/1/4 342/1/4 343/1/4
f 343/1/4 342/1/4 344/1/4
f 339/2/4 340/2/4 345/2/4
f 345/2/4 340/2/4 346/2/4
f 347/1/4 348/1/4 349/1/4
f 349/1/4 348/1/4 350/1/4
f 351/1/4 352/1/4 353/1/4
f 353/1/4 352/1/4 354/1/4
f 355/1/4 356/1/4 357/1/4
f 357/1/4 356/1/4 358/1/4
f 359/1/4 360/1/4 361/1/4
f 361/1/4 360/1/4 362/1/4
f 363/1/4 364/1/4 367/1/4
f 367/1/4 364/1/4 368/1/4
f 365/1/4 366/1/4 369/1/4
f 369/1/4 366/1/4 370/1/4
f 371/1/4 372/1/4 373/1/4
f 373/1/4 372/1/4 374/1/4
f 375/1/4 376/1/4 377/1/4
f 377/1/4 376/1/4 378/1/4
f 378/2/4 379/2/4 380/2/4
f 380/2/4 379/2/4 381/2/4
f 382/2/4 383/2/4 385/2/4
f 383/2/4 384/2/4 385/2/4
f 385/2/4 384/2/4 386/2/4
f 387/2/4 388/2/4 389/2/4
f 389/2/4 388/2/4 390/2/4
f 382/2/4 385/2/4 391/2/4
f 391/2/4 385/2/4 392/2/4
f 393/2/4 394/2/4 395/2/4
f 395/2/4 394/2/4 396/2/4
f 397/1/4 398/1/4 399/1/4
f 399/1/4 398/1/4 400/1/4
f 401/1/4 402/1/4 405/1/4
f 405/1/4 402/1/4 406/1/4
f 403/2/4 404/2/4 407/2/4
f 407/2/4 404/2/4 408/2/4
f 409/2/4 410/2/4 411/2/4
f 411/2/4 412/2/4 414/2/4
f 412/1/4 413/1/4 414/1/4
f 414/1/4 413/1/4 415/1/4
f 414/2/4 415/2/4 421/2/4
f 415/2/4 416/2/4 421/2/4
f 417/1/4 418/1/4 422/1/4
f 422/1/4 418/1/4 423/1/4
f 419/1/4 420/1/4 424/1/4
f 424/1/4 420/1/4 425/1/4
f 422/2/4 423/2/4 426/2/4
f 421/2/4 422/2/4 426/2/4
f 424/2/4 425/2/4 426/2/4
f 423/2/4 424/2/4 426/2/4
f 426/2/4 425/2/4 427/2/4
f 421/2/4 426/2/4 428/2/4
f 426/1/4 427/1/4 428/1/4
f 427/2/4 425/2/4 429/2/4
f 428/1/4 427/1/4 429/1/4
f 409/2/4 411/2/4 430/2/4
f 411/2/4 414/2/4 430/2/4
f 428/2/4 429/2/4 430/2/4
f 421/2/4 428/2/4 430/2/4
f 414/2/4 421/2/4 430/2/4
f 429/2/4 425/2/4 431/2/4
f 430/2/4 429/2/4 431/2/4
f 434/2/5 433/2/5 432/2/5
f 435/2/5 433/2/5 434/2/5
f 436/1/5 435/1/5 434/1/5
f 437/2/5 433/2/5 435/2/5
f 437/1/5 435/1/5 436/1/5
f 439/2/5 433/2/5 437/2/5
f 440/2/5 439/2/5 438/2/5
f 441/2/5 433/2/5 439/2/5
f 441/2/5 439/2/5 440/2/5
f 442/1/5 441/1/5 440/1/5
f 443/2/5 433/2/5 441/2/5
f 443/1/5 441/1/5 442/1/5
f 444/2/5 443/2/5 442/2/5
f 445/2/5 433/2/5 443/2/5
f 445/2/5 443/2/5 444/2/5
f 448/1/5 447/1/5 446/1/5
f 449/1/5 447/1/5 448/1/5
f 452/2/5 451/2/5 450/2/5
f 453/2/5 451/2/5 452/2/5
f 456/2/5 455/2/5 454/2/5
f 457/2/5 455/2/5 456/2/5
f 460/1/5 459/1/5 458/1/5
f 461/1/5 459/1/5 460/1/5
f 464/2/5 463/2/5 462/2/5
f 465/2/5 463/2/5 464/2/5
f 468/1/5 467/1/5 466/1/5
f 469/1/5 467/1/5 468/1/5
f 472/2/5 471/2/5 470/2/5
f 473/2/5 471/2/5 472/2/5
f 476/2/5 475/2/5 474/2/5
f 477/2/5 475/2/5 476/2/5
f 480/1/5 479/1/5 478/1/5
f 481/1/5 479/1/5 480/1/5
f 484/2/5 483/2/5 482/2/5
f 485/2/5 483/2/5 484/2/5
f 489/2/5 487/2/5 486/2/5
f 490/2/5 487/2/5 489/2/5
f 491/2/5 489/2/5 488/2/5
f 492/2/5 489/2/5 491/2/5
f 495/1/5 494/1/5 493/1/5
f 496/1/5 494/1/5 495/1/5
f 499/1/5 498/1/5 497/1/5
f 500/1/5 498/1/5 499/1/5
f 501/2/6 502/2/6 503/2/6
f 503/2/6 502/2/6 504/2/6
f 504/2/6 502/2/6 505/2/6
f 503/1/6 504/1/6 506/1/6
f 506/1/6 504/1/6 507/1/6
f 508/2/6 509/2/6 510/2/6
f 510/2/6 509/2/6 511/2/6
f 511/2/6 509/2/6 512/2/6
f 510/1/6 511/1/6 513/1/6
f 513/1/6 511/1/6 514/1/6
f 513/2/6 514/2/6 515/2/6
f 513/2/6 515/2/6 516/2/6
f 516/2/6 515/2/6 517/2/6
f 518/2/6 519/2/6 520/2/6
f 520/2/6 519/2/6 521/2/6
f 522/1/6 523/1/6 526/1/6
f 523/1/6 524/1/6 526/1/6
f 524/2/6 525/2/6 527/2/6
f 526/1/6 524/1/6 527/1/6
f 527/2/6 525/2/6 528/2/6
f 529/1/6 530/1/6 531/1/6
f 531/1/6 530/1/6 532/1/6
f 532/2/6 533/2/6 536/2/6
f 536/2/6 533/2/6 537/2/6
f 534/1/6 535/1/6 538/1/6
f 538/1/6 535/1/6 539/1/6
f 540/2/6 541/2/6 542/2/6
f 542/2/6 541/2/6 543/2/6
f 544/1/6 545/1/6 547/1/6
f 545/2/6 546/2/6 548/2/6
f 547/1/6 545/1/6 548/1/6
f 548/2/6 546/2/6 549/2/6
f 550/1/6 551/1/6 552/1/6
f 552/1/6 551/1/6 553/1/6
f 552/2/6 553/2/6 554/2/6
f 554/2/6 553/2/6 555/2/6
f 554/1/6 555/1/6 556/1/6
f 556/1/6 555/1/6 557/1/6
f 558/2/6 559/2/6 560/2/6
f 560/2/6 559/2/6 561/2/6
f 561/2/6 559/2/6 562/2/6
f 563/2/6 564/2/6 565/2/6
f 565/2/6 564/2/6 566/2/6
f 567/2/6 568/2/6 569/2/6
f 569/2/6 568/2/6 570/2/6
f 571/2/6 572/2/6 573/2/6
f 573/2/6 572/2/6 574/2/6
f 575/1/6 576/1/6 577/1/6
f 577/1/6 576/1/6 578/1/6
f 579/1/6 580/1/6 581/1/6
f 579/1/6 581/1/6 582/1/6
f 582/1/6 581/1/6 583/1/6
f 583/1/6 584/1/6 585/1/6
f 585/1/6 584/1/6 586/1/6
f 585/2/6 586/2/6 588/2/6
f 588/2/6 586/2/6 589/2/6
f 587/1/6 588/1/6 590/1/6
f 588/2/6 589/2/6 591/2/6
f 590/1/6 588/1/6 591/1/6
f 591/2/6 589/2/6 592/2/6
f 593/1/6 594/1/6 595/1/6
f 595/1/6 594/1/6 596/1/6
f 597/2/6 598/2/6 599/2/6
f 599/2/6 598/2/6 600/2/6
f 601/1/6 602/1/6 603/1/6
f 603/1/6 602/1/6 604/1/6
f 605/2/6 606/2/6 607/2/6
f 607/2/6 606/2/6 608/2/6
f 609/1/6 610/1/6 611/1/6
f 611/1/6 610/1/6 612/1/6
f 613/1/6 614/1/6 616/1/6
f 614/2/6 615/2/6 617/2/6
f 616/1/6 614/1/6 617/1/6
f 617/2/6 615/2/6 618/2/6
f 619/2/6 620/2/6 621/2/6
f 619/2/6 621/2/6 622/2/6
f 622/2/6 621/2/6 623/2/6
f 624/2/6 625/2/6 627/2/6
f 625/2/6 626/2/6 627/2/6
f 627/2/6 626/2/6 628/2/6
f 628/2/6 626/2/6 629/2/6
f 630/2/6 631/2/6 632/2/6
f 632/2/6 631/2/6 633/2/6
f 633/2/6 631/2/6 634/2/6
f 634/2/6 631/2/6 635/2/6
f 632/1/6 633/1/6 636/1/6
f 633/2/6 634/2/6 637/2/6
f 636/1/6 633/1/6 637/1/6
f 634/1/6 635/1/6 638/1/6
f 637/2/6 634/2/6 638/2/6
f 638/1/6 635/1/6 639/1/6
f 637/2/6 638/2/6 642/2/6
f 638/2/6 639/2/6 642/2/6
f 640/1/6 641/1/6 643/1/6
f 641/2/6 642/2/6 644/2/6
f 643/1/6 641/1/6 644/1/6
f 642/2/6 639/2/6 645/2/6
f 644/2/6 642/2/6 645/2/6
f 645/2/6 639/2/6 646/2/6
f 644/2/6 645/2/6 647/2/6
f 647/2/6 645/2/6 648/2/6
f 645/1/6 646/1/6 649/1/6
f 648/2/6 645/2/6 649/2/6
f 649/1/6 646/1/6 650/1/6
f 647/1/6 648/1/6 652/1/6
f 648/2/6 649/2/6 653/2/6
f 649/2/6 650/2/6 653/2/6
f 652/1/6 648/1/6 653/1/6
f 653/2/6 650/2/6 654/2/6
f 654/2/6 650/2/6 655/2/6
f 651/2/6 652/2/6 656/2/6
f 652/2/6 653/2/6 656/2/6
f 653/2/6 654/2/6 656/2/6
f 656/2/6 654/2/6 657/2/6
f 654/1/6 655/1/6 658/1/6
f 657/2/6 654/2/6 658/2/6
f 658/1/6 655/1/6 659/1/6
f 657/2/6 658/2/6 662/2/6
f 658/2/6 659/2/6 662/2/6
f 660/1/6 661/1/6 663/1/6
f 661/2/6 662/2/6 664/2/6
f 663/1/6 661/1/6 664/1/6
f 662/2/6 659/2/6 665/2/6
f 664/2/6 662/2/6 665/2/6
