# MagicaVoxel @ Ephtracy

# group
o 

# material
mtllib Log.mtl
usemtl palette

# normals
vn -1 0 0
vn 1 0 0
vn 0 0 1
vn 0 0 -1
vn 0 -1 0
vn 0 1 0

# texcoords
vt 0.537109 0.5
vt 0.701172 0.5
vt 0.904297 0.5

# verts
v -0.4 -0.4 0.1
v -0.4 -0.4 -0.2
v -0.4 -0.4 -0.3
v -0.4 -0.3 0.2
v -0.4 -0.3 0.1
v -0.4 -0.3 -0.2
v -0.4 -0.3 -0.3
v -0.4 -0.2 0.3
v -0.4 -0.2 0.2
v -0.4 -0.2 0
v -0.4 -0.2 -0.1
v -0.4 -0.1 0.3
v -0.4 -0.1 0.2
v -0.4 -0.1 0
v -0.4 -0.1 -0.1
v -0.4 0 0.2
v -0.4 0 0.1
v -0.4 0 -0.2
v -0.4 0 -0.3
v -0.4 0.1 0.1
v -0.4 0.1 -0.2
v -0.3 0.1 0
v -0.3 0.1 -0.1
v -0.3 0.2 0
v -0.3 0.2 -0.1
v -0.2 -0.4 0.2
v -0.2 -0.4 0.1
v -0.2 -0.3 0.2
v -0.2 -0.3 0.1
v -0.2 -0.3 -0.3
v -0.2 -0.3 -0.4
v -0.2 -0.2 -0.3
v -0.2 -0.2 -0.4
v -0.2 0 0.2
v -0.2 0 0.1
v -0.2 0.1 0.2
v -0.2 0.1 0.1
v -0.1 0 -0.2
v -0.1 0 -0.3
v -0.1 0.1 -0.2
v -0.1 0.1 -0.3
v 0 -0.3 0.3
v 0 -0.3 0.2
v 0 -0.2 0.3
v 0 -0.2 0.2
v 0.1 -0.1 -0.3
v 0.1 -0.1 -0.4
v 0.1 0 -0.3
v 0.1 0 -0.4
v 0.2 -0.4 -0.2
v 0.2 -0.4 -0.3
v 0.2 -0.3 -0.2
v 0.2 -0.3 -0.3
v 0.2 0 0.2
v 0.2 0 0.1
v 0.2 0.1 0.2
v 0.2 0.1 0.1
v 0.2 0.1 0
v 0.2 0.2 0.1
v 0.2 0.2 0
v 0.3 -0.4 0.2
v 0.3 -0.4 0.1
v 0.3 -0.3 0.2
v 0.3 -0.3 0.1
v 0.3 -0.2 -0.3
v 0.3 -0.2 -0.4
v 0.3 -0.1 -0.3
v 0.3 -0.1 -0.4
v 0.4 -0.3 0.3
v 0.4 -0.3 0.2
v 0.4 -0.2 0.3
v 0.4 -0.2 0.2
v 0.4 0 0.2
v 0.4 0 0.1
v 0.4 0.1 0.2
v 0.4 0.1 0.1
v -0.3 -0.4 -0.2
v -0.3 -0.4 -0.3
v -0.3 -0.3 -0.2
v -0.3 -0.3 -0.3
v -0.3 -0.2 0.3
v -0.3 -0.2 0.2
v -0.3 -0.1 0.3
v -0.3 -0.1 0.2
v -0.2 0.1 0
v -0.2 0.1 -0.1
v -0.2 0.2 0
v -0.2 0.2 -0.1
v -0.1 -0.4 0.2
v -0.1 -0.4 0.1
v -0.1 -0.3 0.2
v -0.1 -0.3 0.1
v -0.1 -0.3 -0.3
v -0.1 -0.3 -0.4
v -0.1 -0.2 -0.3
v -0.1 -0.2 -0.4
v -0.1 0 0.2
v -0.1 0 0.1
v -0.1 0.1 0.2
v -0.1 0.1 0.1
v 0 0 -0.2
v 0 0 -0.3
v 0 0.1 -0.2
v 0 0.1 -0.3
v 0.1 -0.3 0.3
v 0.1 -0.3 0.2
v 0.1 -0.2 0.3
v 0.1 -0.2 0.2
v 0.2 -0.1 -0.3
v 0.2 -0.1 -0.4
v 0.2 0 -0.3
v 0.2 0 -0.4
v 0.3 -0.4 -0.2
v 0.3 -0.4 -0.3
v 0.3 -0.3 -0.2
v 0.3 -0.3 -0.3
v 0.3 0 0.2
v 0.3 0 0.1
v 0.3 0.1 0.2
v 0.3 0.1 0.1
v 0.3 0.1 0
v 0.3 0.2 0.1
v 0.3 0.2 0
v 0.4 -0.4 0.2
v 0.4 -0.4 0.1
v 0.4 -0.3 0.2
v 0.4 -0.3 0.1
v 0.4 -0.2 -0.3
v 0.4 -0.2 -0.4
v 0.4 -0.1 -0.3
v 0.4 -0.1 -0.4
v 0.5 -0.4 0.1
v 0.5 -0.4 -0.2
v 0.5 -0.3 0.3
v 0.5 -0.3 0.2
v 0.5 -0.3 0.1
v 0.5 -0.3 -0.2
v 0.5 -0.3 -0.3
v 0.5 -0.2 0.3
v 0.5 -0.2 0.2
v 0.5 -0.2 0
v 0.5 -0.2 -0.1
v 0.5 -0.1 0
v 0.5 -0.1 -0.1
v 0.5 0 0.2
v 0.5 0 0.1
v 0.5 0 -0.2
v 0.5 0 -0.3
v 0.5 0.1 0.2
v 0.5 0.1 0.1
v 0.5 0.1 -0.2
v -0.4 -0.2 0.3
v -0.4 -0.1 0.3
v -0.3 -0.2 0.3
v -0.3 -0.1 0.3
v 0 -0.3 0.3
v 0 -0.2 0.3
v 0.1 -0.3 0.3
v 0.1 -0.2 0.3
v 0.4 -0.3 0.3
v 0.4 -0.2 0.3
v 0.5 -0.3 0.3
v 0.5 -0.2 0.3
v -0.4 -0.3 0.2
v -0.4 -0.2 0.2
v -0.4 -0.1 0.2
v -0.4 0 0.2
v -0.3 -0.2 0.2
v -0.3 -0.1 0.2
v -0.2 -0.4 0.2
v -0.2 -0.3 0.2
v -0.2 0 0.2
v -0.2 0.1 0.2
v -0.1 -0.4 0.2
v -0.1 -0.3 0.2
v -0.1 0 0.2
v -0.1 0.1 0.2
v 0 -0.3 0.2
v 0 -0.2 0.2
v 0.1 -0.3 0.2
v 0.1 -0.2 0.2
v 0.2 0 0.2
v 0.2 0.1 0.2
v 0.3 -0.4 0.2
v 0.3 -0.3 0.2
v 0.3 0 0.2
v 0.3 0.1 0.2
v 0.4 -0.4 0.2
v 0.4 -0.3 0.2
v 0.4 -0.2 0.2
v 0.4 0 0.2
v 0.4 0.1 0.2
v 0.5 -0.2 0.2
v 0.5 0 0.2
v 0.5 0.1 0.2
v -0.4 -0.4 0.1
v -0.4 -0.3 0.1
v -0.4 0 0.1
v -0.4 0.1 0.1
v -0.2 -0.4 0.1
v -0.2 -0.3 0.1
v -0.2 0 0.1
v -0.2 0.1 0.1
v -0.1 -0.4 0.1
v -0.1 -0.3 0.1
v -0.1 0 0.1
v -0.1 0.1 0.1
v 0.2 0 0.1
v 0.2 0.1 0.1
v 0.2 0.2 0.1
v 0.3 -0.4 0.1
v 0.3 -0.3 0.1
v 0.3 0 0.1
v 0.3 0.1 0.1
v 0.3 0.2 0.1
v 0.4 -0.4 0.1
v 0.4 -0.3 0.1
v 0.4 0 0.1
v 0.4 0.1 0.1
v 0.5 -0.4 0.1
v 0.5 -0.3 0.1
v -0.3 0.1 0
v -0.3 0.2 0
v -0.2 0.1 0
v -0.2 0.2 0
v 0.2 0.1 0
v 0.2 0.2 0
v 0.3 0.1 0
v 0.3 0.2 0
v -0.3 0.1 -0.1
v -0.3 0.2 -0.1
v -0.2 0.1 -0.1
v -0.2 0.2 -0.1
v -0.4 0 -0.2
v -0.4 0.1 -0.2
v -0.3 -0.4 -0.2
v -0.3 -0.3 -0.2
v -0.1 0 -0.2
v -0.1 0.1 -0.2
v 0 0 -0.2
v 0 0.1 -0.2
v 0.2 -0.4 -0.2
v 0.2 -0.3 -0.2
v 0.3 -0.4 -0.2
v 0.3 -0.3 -0.2
v 0.5 -0.4 -0.2
v 0.5 -0.3 -0.2
v 0.5 0 -0.2
v 0.5 0.1 -0.2
v -0.4 -0.4 -0.3
v -0.4 -0.3 -0.3
v -0.4 0 -0.3
v -0.3 -0.4 -0.3
v -0.3 -0.3 -0.3
v -0.2 -0.3 -0.3
v -0.2 -0.2 -0.3
v -0.1 -0.3 -0.3
v -0.1 -0.2 -0.3
v -0.1 0 -0.3
v -0.1 0.1 -0.3
v 0 0 -0.3
v 0 0.1 -0.3
v 0.1 -0.1 -0.3
v 0.1 0 -0.3
v 0.2 -0.4 -0.3
v 0.2 -0.3 -0.3
v 0.2 -0.1 -0.3
v 0.2 0 -0.3
v 0.3 -0.4 -0.3
v 0.3 -0.3 -0.3
v 0.3 -0.2 -0.3
v 0.3 -0.1 -0.3
v 0.4 -0.2 -0.3
v 0.4 -0.1 -0.3
v 0.5 -0.3 -0.3
v 0.5 0 -0.3
v -0.2 -0.3 -0.4
v -0.2 -0.2 -0.4
v -0.1 -0.3 -0.4
v -0.1 -0.2 -0.4
v 0.1 -0.1 -0.4
v 0.1 0 -0.4
v 0.2 -0.1 -0.4
v 0.2 0 -0.4
v 0.3 -0.2 -0.4
v 0.3 -0.1 -0.4
v 0.4 -0.2 -0.4
v 0.4 -0.1 -0.4
v -0.2 -0.4 0.2
v -0.1 -0.4 0.2
v 0.3 -0.4 0.2
v 0.4 -0.4 0.2
v -0.4 -0.4 0.1
v -0.2 -0.4 0.1
v -0.1 -0.4 0.1
v 0.3 -0.4 0.1
v 0.4 -0.4 0.1
v 0.5 -0.4 0.1
v -0.4 -0.4 -0.2
v -0.3 -0.4 -0.2
v 0.2 -0.4 -0.2
v 0.3 -0.4 -0.2
v 0.5 -0.4 -0.2
v -0.4 -0.4 -0.3
v -0.3 -0.4 -0.3
v 0.2 -0.4 -0.3
v 0.3 -0.4 -0.3
v 0 -0.3 0.3
v 0.1 -0.3 0.3
v 0.4 -0.3 0.3
v 0.5 -0.3 0.3
v -0.4 -0.3 0.2
v -0.2 -0.3 0.2
v -0.1 -0.3 0.2
v 0 -0.3 0.2
v 0.1 -0.3 0.2
v 0.3 -0.3 0.2
v 0.4 -0.3 0.2
v 0.5 -0.3 0.2
v -0.4 -0.3 0.1
v -0.2 -0.3 0.1
v -0.1 -0.3 0.1
v 0.3 -0.3 0.1
v 0.4 -0.3 0.1
v 0.5 -0.3 0.1
v -0.3 -0.3 -0.2
v 0.2 -0.3 -0.2
v 0.3 -0.3 -0.2
v 0.5 -0.3 -0.2
v -0.3 -0.3 -0.3
v -0.2 -0.3 -0.3
v -0.1 -0.3 -0.3
v 0.2 -0.3 -0.3
v 0.3 -0.3 -0.3
v 0.5 -0.3 -0.3
v -0.2 -0.3 -0.4
v -0.1 -0.3 -0.4
v -0.4 -0.2 0.3
v -0.3 -0.2 0.3
v -0.4 -0.2 0.2
v -0.3 -0.2 0.2
v 0.3 -0.2 -0.3
v 0.4 -0.2 -0.3
v 0.3 -0.2 -0.4
v 0.4 -0.2 -0.4
v 0.1 -0.1 -0.3
v 0.2 -0.1 -0.3
v 0.1 -0.1 -0.4
v 0.2 -0.1 -0.4
v 0 -0.2 0.3
v 0.1 -0.2 0.3
v 0.4 -0.2 0.3
v 0.5 -0.2 0.3
v 0 -0.2 0.2
v 0.1 -0.2 0.2
v 0.4 -0.2 0.2
v 0.5 -0.2 0.2
v -0.2 -0.2 -0.3
v -0.1 -0.2 -0.3
v -0.2 -0.2 -0.4
v -0.1 -0.2 -0.4
v -0.4 -0.1 0.3
v -0.3 -0.1 0.3
v -0.4 -0.1 0.2
v -0.3 -0.1 0.2
v 0.3 -0.1 -0.3
v 0.4 -0.1 -0.3
v 0.3 -0.1 -0.4
v 0.4 -0.1 -0.4
v -0.4 0 0.2
v -0.2 0 0.2
v -0.1 0 0.2
v 0.2 0 0.2
v 0.3 0 0.2
v 0.4 0 0.2
v -0.4 0 0.1
v -0.2 0 0.1
v -0.1 0 0.1
v 0.2 0 0.1
v 0.3 0 0.1
v 0.4 0 0.1
v -0.4 0 -0.2
v -0.1 0 -0.2
v 0 0 -0.2
v 0.5 0 -0.2
v -0.4 0 -0.3
v -0.1 0 -0.3
v 0 0 -0.3
v 0.1 0 -0.3
v 0.2 0 -0.3
v 0.5 0 -0.3
v 0.1 0 -0.4
v 0.2 0 -0.4
v -0.2 0.1 0.2
v -0.1 0.1 0.2
v 0.2 0.1 0.2
v 0.3 0.1 0.2
v 0.4 0.1 0.2
v 0.5 0.1 0.2
v -0.4 0.1 0.1
v -0.2 0.1 0.1
v -0.1 0.1 0.1
v 0.2 0.1 0.1
v 0.3 0.1 0.1
v 0.4 0.1 0.1
v 0.5 0.1 0.1
v -0.3 0.1 0
v -0.2 0.1 0
v 0.2 0.1 0
v 0.3 0.1 0
v -0.3 0.1 -0.1
v -0.2 0.1 -0.1
v -0.4 0.1 -0.2
v -0.1 0.1 -0.2
v 0 0.1 -0.2
v 0.5 0.1 -0.2
v -0.1 0.1 -0.3
v 0 0.1 -0.3
v 0.2 0.2 0.1
v 0.3 0.2 0.1
v -0.3 0.2 0
v -0.2 0.2 0
v 0.2 0.2 0
v 0.3 0.2 0
v -0.3 0.2 -0.1
v -0.2 0.2 -0.1

# faces
f 5/2/1 2/2/1 1/2/1
f 6/3/1 3/3/1 2/3/1
f 6/2/1 2/2/1 5/2/1
f 7/3/1 3/3/1 6/3/1
f 9/2/1 5/2/1 4/2/1
f 9/2/1 6/2/1 5/2/1
f 9/2/1 7/2/1 6/2/1
f 10/2/1 7/2/1 9/2/1
f 11/2/1 7/2/1 10/2/1
f 12/3/1 9/3/1 8/3/1
f 13/2/1 10/2/1 9/2/1
f 13/3/1 9/3/1 12/3/1
f 14/1/1 11/1/1 10/1/1
f 14/2/1 10/2/1 13/2/1
f 15/2/1 7/2/1 11/2/1
f 15/1/1 11/1/1 14/1/1
f 16/2/1 14/2/1 13/2/1
f 16/2/1 15/2/1 14/2/1
f 17/2/1 15/2/1 16/2/1
f 18/2/1 7/2/1 15/2/1
f 18/2/1 15/2/1 17/2/1
f 19/2/1 7/2/1 18/2/1
f 20/2/1 18/2/1 17/2/1
f 21/2/1 18/2/1 20/2/1
f 24/3/1 23/3/1 22/3/1
f 25/3/1 23/3/1 24/3/1
f 28/3/1 27/3/1 26/3/1
f 29/3/1 27/3/1 28/3/1
f 32/3/1 31/3/1 30/3/1
f 33/3/1 31/3/1 32/3/1
f 36/3/1 35/3/1 34/3/1
f 37/3/1 35/3/1 36/3/1
f 40/3/1 39/3/1 38/3/1
f 41/3/1 39/3/1 40/3/1
f 44/3/1 43/3/1 42/3/1
f 45/3/1 43/3/1 44/3/1
f 48/3/1 47/3/1 46/3/1
f 49/3/1 47/3/1 48/3/1
f 52/3/1 51/3/1 50/3/1
f 53/3/1 51/3/1 52/3/1
f 56/3/1 55/3/1 54/3/1
f 57/3/1 55/3/1 56/3/1
f 59/3/1 58/3/1 57/3/1
f 60/3/1 58/3/1 59/3/1
f 63/3/1 62/3/1 61/3/1
f 64/3/1 62/3/1 63/3/1
f 67/3/1 66/3/1 65/3/1
f 68/3/1 66/3/1 67/3/1
f 71/3/1 70/3/1 69/3/1
f 72/3/1 70/3/1 71/3/1
f 75/3/1 74/3/1 73/3/1
f 76/3/1 74/3/1 75/3/1
f 77/3/2 78/3/2 79/3/2
f 79/3/2 78/3/2 80/3/2
f 81/3/2 82/3/2 83/3/2
f 83/3/2 82/3/2 84/3/2
f 85/3/2 86/3/2 87/3/2
f 87/3/2 86/3/2 88/3/2
f 89/3/2 90/3/2 91/3/2
f 91/3/2 90/3/2 92/3/2
f 93/3/2 94/3/2 95/3/2
f 95/3/2 94/3/2 96/3/2
f 97/3/2 98/3/2 99/3/2
f 99/3/2 98/3/2 100/3/2
f 101/3/2 102/3/2 103/3/2
f 103/3/2 102/3/2 104/3/2
f 105/3/2 106/3/2 107/3/2
f 107/3/2 106/3/2 108/3/2
f 109/3/2 110/3/2 111/3/2
f 111/3/2 110/3/2 112/3/2
f 113/3/2 114/3/2 115/3/2
f 115/3/2 114/3/2 116/3/2
f 117/3/2 118/3/2 119/3/2
f 119/3/2 118/3/2 120/3/2
f 120/3/2 121/3/2 122/3/2
f 122/3/2 121/3/2 123/3/2
f 124/3/2 125/3/2 126/3/2
f 126/3/2 125/3/2 127/3/2
f 128/3/2 129/3/2 130/3/2
f 130/3/2 129/3/2 131/3/2
f 132/2/2 133/2/2 136/2/2
f 136/2/2 133/2/2 137/2/2
f 134/3/2 135/3/2 139/3/2
f 137/2/2 138/2/2 140/2/2
f 139/3/2 135/3/2 140/3/2
f 135/2/2 136/2/2 140/2/2
f 136/2/2 137/2/2 140/2/2
f 140/2/2 138/2/2 141/2/2
f 141/2/2 138/2/2 142/2/2
f 140/2/2 141/2/2 143/2/2
f 141/1/2 142/1/2 143/1/2
f 142/2/2 138/2/2 144/2/2
f 143/1/2 142/1/2 144/1/2
f 140/2/2 143/2/2 145/2/2
f 143/2/2 144/2/2 145/2/2
f 145/2/2 144/2/2 146/2/2
f 144/2/2 138/2/2 147/2/2
f 146/2/2 144/2/2 147/2/2
f 147/2/2 138/2/2 148/2/2
f 145/3/2 146/3/2 149/3/2
f 146/2/2 147/2/2 150/2/2
f 149/3/2 146/3/2 150/3/2
f 150/2/2 147/2/2 151/2/2
f 154/3/3 153/3/3 152/3/3
f 155/3/3 153/3/3 154/3/3
f 158/3/3 157/3/3 156/3/3
f 159/3/3 157/3/3 158/3/3
f 162/3/3 161/3/3 160/3/3
f 163/3/3 161/3/3 162/3/3
f 168/2/3 165/2/3 164/2/3
f 169/2/3 167/2/3 166/2/3
f 171/2/3 168/2/3 164/2/3
f 171/2/3 169/2/3 168/2/3
f 172/2/3 167/2/3 169/2/3
f 172/2/3 169/2/3 171/2/3
f 174/3/3 171/3/3 170/3/3
f 175/2/3 172/2/3 171/2/3
f 175/3/3 171/3/3 174/3/3
f 176/3/3 173/3/3 172/3/3
f 176/2/3 172/2/3 175/2/3
f 177/3/3 173/3/3 176/3/3
f 178/2/3 176/2/3 175/2/3
f 179/2/3 176/2/3 178/2/3
f 181/2/3 176/2/3 179/2/3
f 182/2/3 176/2/3 181/2/3
f 182/2/3 181/2/3 180/2/3
f 185/2/3 182/2/3 180/2/3
f 186/3/3 183/3/3 182/3/3
f 186/2/3 182/2/3 185/2/3
f 187/3/3 183/3/3 186/3/3
f 188/3/3 185/3/3 184/3/3
f 189/2/3 186/2/3 185/2/3
f 189/3/3 185/3/3 188/3/3
f 190/2/3 186/2/3 189/2/3
f 191/2/3 186/2/3 190/2/3
f 193/2/3 191/2/3 190/2/3
f 194/3/3 192/3/3 191/3/3
f 194/2/3 191/2/3 193/2/3
f 195/3/3 192/3/3 194/3/3
f 200/2/3 197/2/3 196/2/3
f 201/2/3 197/2/3 200/2/3
f 202/2/3 199/2/3 198/2/3
f 203/2/3 199/2/3 202/2/3
f 208/2/3 207/2/3 206/2/3
f 209/2/3 207/2/3 208/2/3
f 211/2/3 205/2/3 204/2/3
f 212/2/3 205/2/3 211/2/3
f 214/3/3 210/3/3 209/3/3
f 215/3/3 210/3/3 214/3/3
f 218/2/3 214/2/3 213/2/3
f 219/2/3 214/2/3 218/2/3
f 220/2/3 217/2/3 216/2/3
f 221/2/3 217/2/3 220/2/3
f 224/3/3 223/3/3 222/3/3
f 225/3/3 223/3/3 224/3/3
f 226/3/4 227/3/4 228/3/4
f 228/3/4 227/3/4 229/3/4
f 230/3/4 231/3/4 232/3/4
f 232/3/4 231/3/4 233/3/4
f 234/2/4 235/2/4 238/2/4
f 238/2/4 235/2/4 239/2/4
f 236/2/4 237/2/4 242/2/4
f 242/2/4 237/2/4 243/2/4
f 244/2/4 245/2/4 246/2/4
f 246/2/4 245/2/4 247/2/4
f 240/2/4 241/2/4 248/2/4
f 248/2/4 241/2/4 249/2/4
f 250/3/4 251/3/4 253/3/4
f 251/2/4 252/2/4 254/2/4
f 253/3/4 251/3/4 254/3/4
f 254/2/4 252/2/4 255/2/4
f 255/2/4 252/2/4 256/2/4
f 256/2/4 252/2/4 258/2/4
f 258/2/4 252/2/4 259/2/4
f 257/2/4 258/2/4 261/2/4
f 259/3/4 260/3/4 261/3/4
f 258/2/4 259/2/4 261/2/4
f 261/3/4 260/3/4 262/3/4
f 257/2/4 261/2/4 263/2/4
f 263/2/4 261/2/4 264/2/4
f 257/2/4 263/2/4 266/2/4
f 266/2/4 263/2/4 267/2/4
f 265/3/4 266/3/4 269/3/4
f 267/2/4 268/2/4 270/2/4
f 269/3/4 266/3/4 270/3/4
f 266/2/4 267/2/4 270/2/4
f 270/2/4 268/2/4 271/2/4
f 271/2/4 268/2/4 272/2/4
f 270/2/4 271/2/4 273/2/4
f 272/2/4 268/2/4 274/2/4
f 270/2/4 273/2/4 275/2/4
f 273/2/4 274/2/4 275/2/4
f 274/2/4 268/2/4 276/2/4
f 275/2/4 274/2/4 276/2/4
f 277/3/4 278/3/4 279/3/4
f 279/3/4 278/3/4 280/3/4
f 281/3/4 282/3/4 283/3/4
f 283/3/4 282/3/4 284/3/4
f 285/3/4 286/3/4 287/3/4
f 287/3/4 286/3/4 288/3/4
f 294/3/5 290/3/5 289/3/5
f 295/3/5 290/3/5 294/3/5
f 296/3/5 292/3/5 291/3/5
f 297/3/5 292/3/5 296/3/5
f 299/2/5 295/2/5 294/2/5
f 299/2/5 298/2/5 297/2/5
f 299/2/5 297/2/5 296/2/5
f 299/2/5 296/2/5 295/2/5
f 299/2/5 294/2/5 293/2/5
f 300/2/5 298/2/5 299/2/5
f 301/2/5 298/2/5 300/2/5
f 302/2/5 298/2/5 301/2/5
f 303/2/5 298/2/5 302/2/5
f 304/3/5 300/3/5 299/3/5
f 305/3/5 300/3/5 304/3/5
f 306/3/5 302/3/5 301/3/5
f 307/3/5 302/3/5 306/3/5
f 315/3/5 309/3/5 308/3/5
f 316/3/5 309/3/5 315/3/5
f 318/3/5 311/3/5 310/3/5
f 319/3/5 311/3/5 318/3/5
f 320/2/5 313/2/5 312/2/5
f 321/2/5 313/2/5 320/2/5
f 322/2/5 317/2/5 316/2/5
f 322/2/5 315/2/5 314/2/5
f 322/2/5 316/2/5 315/2/5
f 323/2/5 317/2/5 322/2/5
f 324/2/5 319/2/5 318/2/5
f 325/2/5 319/2/5 324/2/5
f 330/2/5 327/2/5 326/2/5
f 331/2/5 327/2/5 330/2/5
f 332/2/5 327/2/5 331/2/5
f 333/2/5 327/2/5 332/2/5
f 334/2/5 329/2/5 328/2/5
f 335/2/5 329/2/5 334/2/5
f 336/3/5 332/3/5 331/3/5
f 337/3/5 332/3/5 336/3/5
f 340/3/5 339/3/5 338/3/5
f 341/3/5 339/3/5 340/3/5
f 344/3/5 343/3/5 342/3/5
f 345/3/5 343/3/5 344/3/5
f 348/3/5 347/3/5 346/3/5
f 349/3/5 347/3/5 348/3/5
f 350/3/6 351/3/6 354/3/6
f 354/3/6 351/3/6 355/3/6
f 352/3/6 353/3/6 356/3/6
f 356/3/6 353/3/6 357/3/6
f 358/3/6 359/3/6 360/3/6
f 360/3/6 359/3/6 361/3/6
f 362/3/6 363/3/6 364/3/6
f 364/3/6 363/3/6 365/3/6
f 366/3/6 367/3/6 368/3/6
f 368/3/6 367/3/6 369/3/6
f 370/2/6 371/2/6 376/2/6
f 376/2/6 371/2/6 377/2/6
f 372/2/6 373/2/6 378/2/6
f 378/2/6 373/2/6 379/2/6
f 374/2/6 375/2/6 380/2/6
f 380/2/6 375/2/6 381/2/6
f 382/2/6 383/2/6 386/2/6
f 386/2/6 383/2/6 387/2/6
f 384/2/6 385/2/6 388/2/6
f 388/2/6 385/2/6 389/2/6
f 389/2/6 385/2/6 390/2/6
f 390/2/6 385/2/6 391/2/6
f 389/3/6 390/3/6 392/3/6
f 392/3/6 390/3/6 393/3/6
f 394/3/6 395/3/6 401/3/6
f 401/3/6 395/3/6 402/3/6
f 396/3/6 397/3/6 403/3/6
f 403/3/6 397/3/6 404/3/6
f 398/3/6 399/3/6 405/3/6
f 405/3/6 399/3/6 406/3/6
f 401/2/6 402/2/6 407/2/6
f 400/2/6 401/2/6 407/2/6
f 402/2/6 403/2/6 407/2/6
f 407/2/6 403/2/6 408/2/6
f 408/2/6 403/2/6 409/2/6
f 405/2/6 406/2/6 410/2/6
f 404/2/6 405/2/6 410/2/6
f 400/2/6 407/2/6 411/2/6
f 408/2/6 409/2/6 412/2/6
f 409/2/6 410/2/6 412/2/6
f 400/2/6 411/2/6 413/2/6
f 411/2/6 412/2/6 413/2/6
f 412/2/6 410/2/6 414/2/6
f 413/2/6 412/2/6 414/2/6
f 414/2/6 410/2/6 415/2/6
f 410/2/6 406/2/6 416/2/6
f 415/2/6 410/2/6 416/2/6
f 414/3/6 415/3/6 417/3/6
f 417/3/6 415/3/6 418/3/6
f 419/3/6 420/3/6 423/3/6
f 423/3/6 420/3/6 424/3/6
f 421/3/6 422/3/6 425/3/6
f 425/3/6 422/3/6 426/3/6
